<?xml version="1.0" standalone="no"?>
<!DOCTYPE svg PUBLIC "-//W3C//DTD SVG 1.1//EN" "http://www.w3.org/Graphics/SVG/1.1/DTD/svg11.dtd" >
<svg xmlns="http://www.w3.org/2000/svg">
<metadata></metadata>
<defs>
<font id="museo_slab_300regular" horiz-adv-x="1241" >
<font-face units-per-em="2048" ascent="1536" descent="-512" />
<missing-glyph horiz-adv-x="512" />
<glyph unicode="&#xfb01;" horiz-adv-x="1222" d="M117 915l20 115h185l10 45q19 97 59.5 169t85.5 110t100.5 61t94.5 29t78 6q41 0 55 -2l20 -4l-26 -119q-7 0 -13 2q-8 2 -38 2q-28 0 -54 -4t-62 -19t-64.5 -41t-55.5 -74.5t-41 -113.5l-10 -47h610l-149 -764q-7 -40 -7 -59q0 -57 26 -76.5t71 -19.5q33 0 39 2t14 2 l-23 -115q-18 0 -26 -2q-14 -2 -47 -2q-199 0 -199 180q0 24 10 76l129 663h-469l-178 -915h-139l178 915h-184zM969 1266l35 174h157l-37 -174h-155z" />
<glyph unicode="&#xfb02;" horiz-adv-x="1234" d="M115 915l20 115h184l9 39q78 399 499 399q146 0 236 -22q46 -8 92 -25l-221 -1147q-8 -33 -8 -67q0 -31 7.5 -51t23.5 -28t30 -10.5t37 -2.5q33 0 39 2t14 2l-24 -119l-23 -4q-14 -2 -49 -2q-34 0 -64.5 7t-63.5 25t-53 57.5t-20 96.5q0 21 11 78l208 1073l-45 12 q-57 11 -137 11q-47 0 -86 -6t-83 -24t-76.5 -48t-60.5 -82t-42 -123l-8 -41h262l-21 -115h-262l-178 -915h-139l176 915h-184z" />
<glyph unicode="&#xfb03;" horiz-adv-x="1859" d="M117 915l20 115h182l11 45q14 70 39 127t54.5 95t67 67t71.5 45t71.5 25.5t64 12.5t52.5 3q41 0 55 -2l20 -4l-26 -119q-7 0 -13 2q-8 2 -38 2q-28 0 -54 -4t-62 -19t-64.5 -41t-55.5 -74.5t-41 -113.5l-10 -47h497l11 45q19 97 59.5 169t85 110t100.5 61t94.5 29t77.5 6 q42 0 56 -2l20 -4l-26 -119q-7 0 -13 2q-8 2 -39 2q-27 0 -52.5 -4t-61.5 -19t-64.5 -41t-55 -74.5t-40.5 -113.5l-10 -47h608l-149 -764q-7 -40 -7 -59q0 -57 27 -76.5t72 -19.5q31 0 39 2q6 2 12 2l-23 -115q-18 0 -26 -2q-14 -2 -45 -2q-201 0 -201 180q0 24 10 76 l129 663h-469l-176 -915h-141l176 915h-496l-178 -915h-139l176 915h-182zM1606 1266l34 174h158l-35 -174h-157z" />
<glyph unicode="&#xfb04;" horiz-adv-x="1873" d="M117 915l20 115h182l11 45q14 70 39 127t54.5 95t67 67t71.5 45t71.5 25.5t64 12.5t52.5 3q41 0 55 -2l20 -4l-26 -119q-7 0 -13 2q-8 2 -38 2q-28 0 -54 -4t-62 -19t-64.5 -41t-55.5 -74.5t-41 -113.5l-10 -47h497l9 39q78 399 497 399q143 0 236 -22q49 -8 94 -25 l-221 -1147q-10 -45 -10 -67q0 -31 7.5 -51t23.5 -28t30 -10.5t37 -2.5q35 0 41 2t12 2l-24 -119l-23 -4q-14 -2 -49 -2q-34 0 -64 7t-63 25t-52.5 57.5t-19.5 96.5q0 37 8 78l209 1073q-14 5 -43 12q-57 11 -139 11q-47 0 -86 -6t-83 -24t-76.5 -48t-60.5 -82t-42 -123 l-6 -41h260l-21 -115h-262l-176 -915h-141l176 915h-496l-178 -915h-139l176 915h-182z" />
<glyph horiz-adv-x="2048" />
<glyph horiz-adv-x="2048" />
<glyph unicode="&#xd;" horiz-adv-x="2048" />
<glyph unicode=" "  horiz-adv-x="512" />
<glyph unicode="&#x09;" horiz-adv-x="512" />
<glyph unicode="&#xa0;" horiz-adv-x="512" />
<glyph unicode="!" horiz-adv-x="487" d="M45 0l33 162h162l-33 -162h-162zM133 377l201 1063h145l-215 -1063h-131z" />
<glyph unicode="&#x22;" horiz-adv-x="653" d="M227 1049l80 411h121l-80 -411h-121zM477 1049l78 411h121l-80 -411h-119z" />
<glyph unicode="#" horiz-adv-x="1486" d="M57 399l43 115h287l150 401h-287l41 115h287l151 410h129l-151 -410h354l151 410h127l-151 -410h285l-41 -115h-285l-150 -401h283l-41 -115h-285l-147 -399h-129l149 399h-354l-147 -399h-129l149 399h-289zM516 514h352l150 401h-354z" />
<glyph unicode="$" horiz-adv-x="1089" d="M20 190l93 93q34 -36 88 -72q108 -74 248 -74q141 0 249.5 77t108.5 194q0 53 -26 96.5t-68 73.5t-96.5 60t-110.5 54.5t-110.5 58.5t-96.5 71.5t-68 93.5t-26 124q0 156 125 264.5t327 125.5l45 223h115l-43 -226q127 -10 236 -71q47 -27 77 -62l-81 -104q-35 35 -78 57 q-92 56 -228 56q-151 0 -250.5 -75.5t-99.5 -183.5q0 -58 33.5 -104.5t86.5 -78.5t117.5 -61.5t129 -63t117.5 -73t86.5 -100.5t33.5 -137q0 -162 -129 -281.5t-329 -136.5l-41 -219h-115l41 221q-161 18 -275 101q-54 38 -86 79z" />
<glyph unicode="%" horiz-adv-x="1478" d="M6 0l1362 1440h158l-1362 -1440h-158zM209 1147q0 121 103 219t231 98q116 0 184 -69t68 -181q0 -126 -101.5 -222.5t-230.5 -96.5q-117 0 -185.5 68t-68.5 184zM332 1145q0 -58 38.5 -96.5t100.5 -38.5q80 0 140.5 60.5t60.5 143.5q0 58 -38 97t-99 39q-78 0 -140.5 -62 t-62.5 -143zM729 227q0 121 103 219.5t231 98.5q116 0 184 -69t68 -181q0 -126 -101.5 -223t-230.5 -97q-117 0 -185.5 68t-68.5 184zM852 225q0 -61 38 -98t103 -37q80 0 140.5 61t60.5 142q0 61 -38 99t-101 38q-78 0 -140.5 -62t-62.5 -143z" />
<glyph unicode="&#x26;" horiz-adv-x="1329" d="M72 340q0 148 96 271.5t250 164.5v4q-37 14 -74 51q-74 74 -74 201q0 189 140 310.5t344 121.5q63 0 129 -12q38 -9 53 -14l-59 -117q-2 0 -15.5 3.5t-21.5 4.5q-31 8 -88 8q-86 0 -162 -36.5t-125 -108t-49 -162.5q0 -39 10 -71t36.5 -63.5t82 -49t137.5 -17.5h303 l39 205h141l-39 -205h195l-25 -122h-194l-43 -213q-53 -265 -194.5 -392t-358.5 -127q-205 0 -319.5 100.5t-114.5 264.5zM219 356q0 -117 75 -184.5t214 -67.5q334 0 412 394l41 209h-304q-116 0 -214 -40t-161 -121.5t-63 -189.5z" />
<glyph unicode="'" horiz-adv-x="407" d="M227 1049l80 411h123l-80 -411h-123z" />
<glyph unicode="(" horiz-adv-x="622" d="M143 350q0 639 416 1145h135q-424 -538 -424 -1149q0 -273 97 -541h-125q-99 265 -99 545z" />
<glyph unicode=")" horiz-adv-x="628" d="M-49 -195q424 538 424 1149q0 276 -96 541h124q101 -270 101 -545q0 -636 -418 -1145h-135z" />
<glyph unicode="*" horiz-adv-x="983" d="M193 1108l65 125l272 -109l50 316h139l-74 -316l320 107l18 -129l-324 -90v-4l140 -242l-113 -78l-129 260h-4l-225 -258l-99 80l242 250v4z" />
<glyph unicode="+" d="M70 522l22 119h473l103 522h125l-103 -522h471l-22 -119h-469l-105 -522h-125l103 522h-473z" />
<glyph unicode="," horiz-adv-x="512" d="M-109 -264l226 432h157l-258 -432h-125z" />
<glyph unicode="-" horiz-adv-x="1009" d="M197 518l22 127h582l-23 -127h-581z" />
<glyph unicode="." horiz-adv-x="501" d="M57 0l31 170h168l-33 -170h-166z" />
<glyph unicode="/" horiz-adv-x="851" d="M-37 -86l832 1606h139l-832 -1606h-139z" />
<glyph unicode="0" horiz-adv-x="1275" d="M133 440q0 83 10 173.5t33.5 191t58.5 193.5t88 178.5t118 149t153.5 101t189.5 37.5q110 0 190 -33t126.5 -96.5t68 -146.5t21.5 -191q0 -83 -10 -173t-33.5 -190.5t-57.5 -193.5t-87.5 -178.5t-118 -148.5t-153.5 -100.5t-191 -37.5q-211 0 -308.5 123.5t-97.5 341.5z M279 440q0 -334 262 -334q78 0 146 33t117.5 88t90.5 129.5t68 156t45 168.5t26 165.5t8 148.5q0 162 -60.5 250t-201.5 88q-102 0 -187.5 -59.5t-142 -153.5t-96.5 -214t-57.5 -238t-17.5 -228z" />
<glyph unicode="1" horiz-adv-x="929" d="M-6 0l22 123h324l203 1040q3 10 7 31t7 31l6 28h-4l-20 -22q-15 -17 -54 -49l-196 -164l-78 98l393 324h131l-256 -1317h316l-25 -123h-776z" />
<glyph unicode="2" horiz-adv-x="1181" d="M12 0q2 96 35 181t87.5 150t125 123.5t148 107.5t154.5 96t147 96.5t123.5 101t85.5 116t32 136.5q0 104 -65 164.5t-185 60.5q-130 0 -262 -98q-58 -43 -104 -98l-98 77q58 70 131 125q167 125 342 125q186 0 289.5 -95t103.5 -251q0 -81 -29 -154t-78 -130.5 t-113.5 -111t-137 -100t-146 -91t-142.5 -91t-125.5 -93.5t-96 -104.5t-52.5 -119.5h662l41 201h129l-64 -324h-938z" />
<glyph unicode="3" horiz-adv-x="1155" d="M12 172l92 96q37 -43 89 -80q114 -82 247 -82q105 0 199 49t152.5 135t58.5 187q0 124 -84.5 188t-218.5 64q-48 0 -66 -2l-30 -4l-23 86l475 465q20 20 39 31l19 12v4q-17 0 -25 -2q-14 -2 -43 -2h-469l-39 -197h-131l63 320h850l-18 -101l-520 -501q46 -2 92.5 -13 t97.5 -36.5t89.5 -63t63.5 -98t25 -135.5q0 -101 -43.5 -196t-117 -165.5t-177 -113t-217.5 -42.5q-174 0 -319 99q-66 45 -111 98z" />
<glyph unicode="4" horiz-adv-x="1206" d="M23 399l16 93l887 948h157l-178 -920h205l-25 -121h-204l-78 -399h-141l77 399h-716zM223 520h541l127 649q3 10 7 32t7 32l10 31h-4l-18 -27q-3 -4 -18.5 -23t-26.5 -30l-625 -660v-4z" />
<glyph unicode="5" horiz-adv-x="1144" d="M23 164l92 90q34 -40 80 -74q104 -74 233 -74q110 0 209 53t161 146t62 201q0 128 -84.5 203t-224.5 75q-116 0 -199 -39q-33 -14 -80 -40l-88 34l215 701h705l-64 -320h-131l41 197h-448l-117 -375q-16 -53 -20 -63l-11 -23h4q26 15 62 27q72 26 166 26 q187 0 304.5 -111t117.5 -290q0 -108 -48 -207t-128 -170.5t-187.5 -113.5t-222.5 -42q-170 0 -303 95q-50 35 -96 94z" />
<glyph unicode="6" horiz-adv-x="1216" d="M121 492q0 88 23 192t66.5 213.5t112.5 210.5t154 180.5t198 127.5t238 48q105 0 199 -28q34 -10 74 -31l-70 -119q-28 17 -57 25q-61 22 -148 22q-110 0 -210 -50t-174 -134.5t-128 -184.5t-86 -210h4q67 78 169.5 123t211.5 45q177 0 283 -104t106 -273 q0 -83 -23.5 -165t-70 -155t-109.5 -129t-148.5 -88.5t-180.5 -32.5q-201 0 -317.5 142.5t-116.5 374.5zM266 465q0 -89 33 -169.5t101.5 -135t158.5 -54.5q159 0 270 126.5t111 306.5q0 120 -71.5 189t-200.5 69q-65 0 -135 -24.5t-129.5 -66.5t-98.5 -106t-39 -135z" />
<glyph unicode="7" horiz-adv-x="1099" d="M106 0l865 1255q25 36 37 48l14 14v4q-15 0 -23 -2q-14 -2 -53 -2h-590l-39 -197h-131l64 320h964l-20 -99l-928 -1341h-160z" />
<glyph unicode="8" horiz-adv-x="1230" d="M82 350q0 55 16 108t39 94t59 82t63.5 66.5t65 53t53 37t36.5 22.5q-138 98 -138 244q0 76 34.5 148.5t96.5 130.5t156.5 93t204.5 35q190 0 293.5 -84t103.5 -233q0 -65 -25.5 -133.5t-57.5 -116.5t-77 -98t-65.5 -68.5t-42.5 -36.5q79 -52 121.5 -114.5t42.5 -147.5 q0 -124 -74.5 -230t-199.5 -166.5t-271 -60.5q-189 0 -311.5 100.5t-122.5 274.5zM231 360q0 -118 83.5 -187t207.5 -69q95 0 183 38.5t147 114t59 169.5q0 41 -18 76.5t-44 61t-70 52t-81 43.5t-91.5 42.5t-88.5 43.5q-112 -69 -172 -131q-115 -119 -115 -254zM422 1059 q0 -33 10.5 -62.5t33.5 -54.5t45.5 -44t62 -40.5t66.5 -34.5t75.5 -35t72.5 -34q22 16 53 46t74.5 81.5t73 120t29.5 135.5q0 92 -68.5 145t-185.5 53q-146 0 -244 -81.5t-98 -194.5z" />
<glyph unicode="9" horiz-adv-x="1216" d="M82 35l65 119q31 -16 56 -23q62 -25 147 -25q110 0 209.5 50.5t174 135t128.5 185.5t86 211h-4q-67 -78 -170.5 -123t-212.5 -45q-179 0 -283 102t-104 273q0 104 38 205.5t105 182.5t169 131t221 50q201 0 317.5 -142t116.5 -374q0 -88 -23 -192t-66.5 -213.5 t-112.5 -211t-153.5 -181t-198.5 -127.5t-239 -48q-92 0 -196 31q-29 9 -70 29zM319 901q0 -118 71.5 -188t199.5 -70q64 0 134.5 24.5t131 67t100 106t39.5 134.5q0 52 -11.5 103t-36 97t-58 81.5t-81.5 56t-103 20.5q-161 0 -273.5 -126t-112.5 -306z" />
<glyph unicode=":" horiz-adv-x="614" d="M109 0l32 170h166l-33 -170h-165zM276 860l33 170h166l-33 -170h-166z" />
<glyph unicode=";" horiz-adv-x="624" d="M-61 -264l215 432h168l-259 -432h-124zM287 860l32 170h166l-32 -170h-166z" />
<glyph unicode="&#x3c;" d="M115 530v103l925 414v-138l-753 -325v-4l753 -326v-137z" />
<glyph unicode="=" d="M133 344v119h954v-119h-954zM133 700v119h954v-119h-954z" />
<glyph unicode="&#x3e;" d="M193 117v137l753 326v4l-753 325v138l925 -414v-103z" />
<glyph unicode="?" horiz-adv-x="952" d="M201 0l35 162h159l-33 -162h-161zM236 1358q44 33 100 55q124 53 239 53q161 0 260 -85.5t99 -225.5q0 -75 -24 -139t-64 -111.5t-88.5 -89.5t-99.5 -81t-95 -77.5t-78 -88t-45 -103.5l-18 -88h-137l18 92q13 69 47 130t77.5 104.5t92.5 84t95.5 78t84.5 77t61 90 t23 108.5q0 86 -60 139t-163 53q-96 0 -188 -43q-36 -17 -78 -43z" />
<glyph unicode="@" horiz-adv-x="1583" d="M70 369q0 173 74 335.5t196.5 281t288.5 190t342 71.5q206 0 312 -91.5t106 -233.5q0 -42 -9 -80l-120 -627h145l-23 -115h-532q-162 0 -260 94.5t-98 237.5q0 118 64.5 222.5t180.5 168.5t256 64h258q2 4 2 14v29q0 84 -76 141t-223 57t-284.5 -63.5t-237 -168 t-159.5 -243.5t-60 -284q0 -224 135.5 -363t364.5 -139l-25 -121q-270 0 -444 174t-174 449zM635 440q0 -99 64 -162t167 -63h254l109 563h-250q-134 0 -239 -104t-105 -234z" />
<glyph unicode="A" horiz-adv-x="1464" d="M-94 0l22 119h146l741 1321h160l227 -1321h146l-23 -119h-455l23 119h166l-64 370h-561l-207 -370h164l-24 -119h-461zM498 610h481l-98 590q-4 15 -5 40l-2 24q-2 10 -2 28h-4q-1 -6 -10 -28q-11 -29 -29 -64z" />
<glyph unicode="B" horiz-adv-x="1382" d="M-4 0l24 119h187l233 1202h-188l24 119h627q140 0 236 -47q68 -32 106.5 -103.5t38.5 -163.5q0 -129 -68.5 -223t-183.5 -143v-4q84 -30 131 -104.5t47 -184.5q0 -137 -71 -247.5t-185 -166.5q-109 -53 -258 -53h-700zM350 123h342q124 0 213 53q69 43 113.5 121.5 t44.5 169.5q0 108 -62.5 166.5t-173.5 58.5h-366zM485 815h349q126 0 214.5 84t88.5 217q0 110 -78 164q-58 37 -154 37h-321z" />
<glyph unicode="C" horiz-adv-x="1521" d="M129 600q0 176 72 337t191 276t278 183t327 68q39 0 82 -3.5t96 -12t101.5 -22t93.5 -36t75.5 -50.5t44.5 -69q8 -24 7 -49q0 -19 -4 -40l-31 -158h-137l23 119q2 12 2 24q0 39 -24 69q-32 40 -92 60t-121 29.5t-120 9.5q-141 0 -273 -59t-229.5 -156.5t-156 -231.5 t-58.5 -278q0 -225 132 -365.5t352 -140.5q63 0 132.5 11.5t136.5 34t115 62.5t58 89l23 113h137l-29 -152q-16 -74 -78.5 -132t-149 -90.5t-175.5 -48.5t-172 -16q-286 0 -457.5 173.5t-171.5 451.5z" />
<glyph unicode="D" horiz-adv-x="1595" d="M-2 0l22 119h187l233 1202h-186l22 119h592q190 0 324 -49q156 -60 237.5 -191t81.5 -328q0 -251 -130 -470.5t-343 -319.5q-174 -82 -397 -82h-643zM350 123h275q205 0 352 72q174 92 281.5 273t107.5 392q0 156 -61 260t-175 152q-109 45 -274 45h-272z" />
<glyph unicode="E" horiz-adv-x="1284" d="M-4 0l24 119h187l233 1202h-188l24 119h1016l-59 -299h-129l35 176h-555l-103 -531h543l-25 -122h-542l-107 -541h594l37 186h129l-61 -309h-1053z" />
<glyph unicode="F" horiz-adv-x="1171" d="M-4 0l24 119h187l233 1202h-188l24 119h969l-61 -307h-131l37 180h-506l-107 -543h527l-25 -123h-526l-103 -528h201l-25 -119h-530z" />
<glyph unicode="G" horiz-adv-x="1579" d="M127 596q0 173 69.5 333t186.5 277.5t280 187.5t341 70q72 0 147 -11t147 -34t126 -55.5t82 -79.5q19 -34 19 -71q0 -15 -3 -31l-31 -158h-137l20 109q2 12 2 24q0 38 -24 69q-33 40 -91 63t-124 34.5t-131 11.5q-150 0 -286.5 -60.5t-233 -160.5t-153.5 -233.5 t-57 -274.5q0 -224 138 -363t372 -139q64 0 134.5 11t142 33.5t123 65.5t63.5 99l45 226h-301l23 118h438l-76 -378q-15 -81 -79.5 -142.5t-155 -95t-183.5 -50t-182 -16.5q-298 0 -474.5 171t-176.5 450z" />
<glyph unicode="H" horiz-adv-x="1722" d="M-2 0l22 119h187l233 1202h-186l22 119h521l-23 -119h-188l-105 -539h832l104 539h-188l24 119h521l-25 -119h-188l-234 -1202h189l-25 -119h-520l24 119h189l104 540h-831l-107 -540h189l-23 -119h-518z" />
<glyph unicode="I" horiz-adv-x="745" d="M-2 0l22 119h187l233 1202h-186l22 119h521l-23 -119h-190l-234 -1202h189l-23 -119h-518z" />
<glyph unicode="J" horiz-adv-x="1110" d="M6 301q0 47 12 109l13 51h139q-3 -21 -10 -47q-13 -58 -13 -95q0 -213 211 -213q50 0 97 15.5t91.5 48.5t79 92.5t50.5 138.5l176 920h-221l24 119h533l-25 -119h-168l-180 -932q-21 -110 -69.5 -192.5t-113 -129.5t-134 -69.5t-144.5 -22.5q-70 0 -131.5 19t-110.5 57 t-77.5 102t-28.5 148z" />
<glyph unicode="K" horiz-adv-x="1372" d="M-2 0l22 119h187l233 1202h-186l22 119h508l-22 -119h-178l-99 -508h201l451 508h-131l24 119h445l-23 -119h-147l-506 -563v-4q3 -2 8.5 -8.5t7.5 -8.5q20 -29 35 -63l186 -465q14 -34 24 -50.5t34.5 -30t62.5 -13.5q25 0 39 2q6 2 21 2l-23 -119q-1 0 -30.5 -2 t-47.5 -2q-43 0 -76 10t-54 23t-40.5 41t-29.5 48t-27 60l-172 445q-14 36 -37.5 51.5t-69.5 15.5h-149l-111 -571h187l-23 -119h-516z" />
<glyph unicode="L" horiz-adv-x="1208" d="M-2 0l22 119h187l233 1198h-188l24 123h521l-25 -123h-188l-232 -1194h574l49 239h129l-72 -362h-1034z" />
<glyph unicode="M" horiz-adv-x="1933" d="M-37 0l25 119h184l330 1202h-191l25 119h340l233 -942q10 -38 13 -60q2 -8 2 -24h4q3 12 12 24q2 3 13.5 25t19.5 35l602 942h350l-22 -119h-189l-141 -1202h186l-22 -119h-512l22 119h185l116 993q3 10 8 33t7 33l8 36h-4l-17 -34l-30 -62l-549 -844h-133l-222 844 l-8 62q-2 12 -2 34h-4l-4 -36q-4 -41 -12 -66l-273 -993h185l-23 -119h-512z" />
<glyph unicode="N" horiz-adv-x="1705" d="M-4 0l24 119h187l233 1202h-188l24 119h322l584 -1143q5 -9 12 -31t8 -24q4 -11 8 -29h4l5 33q6 56 8 61l200 1014h-190l23 119h522l-23 -119h-188l-258 -1321h-137l-586 1145q-5 9 -11 30t-8 25l-8 29h-4q0 -23 -2 -33q-2 -22 -10 -61l-197 -1016h191l-25 -119h-520z " />
<glyph unicode="O" horiz-adv-x="1691" d="M125 598q0 172 74 332.5t194.5 277t281 186.5t326.5 70q272 0 443.5 -170.5t171.5 -435.5q0 -174 -74.5 -338t-195.5 -283t-282 -190.5t-327 -71.5q-181 0 -320.5 80t-215.5 221.5t-76 321.5zM270 602q0 -218 133.5 -357t346.5 -139q131 0 261 60t231 159.5t163.5 238.5 t62.5 288q0 213 -133 347t-348 134q-133 0 -263.5 -58.5t-230.5 -156t-161.5 -234t-61.5 -282.5z" />
<glyph unicode="P" horiz-adv-x="1325" d="M-4 0l24 119h187l233 1202h-188l24 119h648q136 0 209 -29q92 -37 146 -121.5t54 -208.5q0 -153 -82.5 -283t-218.5 -188q-95 -41 -233 -41h-361l-88 -450h189l-23 -119h-520zM463 692h328q106 0 184 35q94 42 152.5 135.5t58.5 208.5q0 163 -113 215q-67 31 -170 31 h-319z" />
<glyph unicode="Q" horiz-adv-x="1693" d="M125 598q0 171 74 332t193.5 277t277 186.5t319.5 70.5q278 0 452.5 -170t174.5 -436q0 -183 -76 -344.5t-209 -288.5l137 -174l-94 -84l-139 178q-226 -170 -485 -170q-278 0 -451.5 175t-173.5 448zM272 602q0 -218 133.5 -357t346.5 -139q210 0 401 142l-178 227 l94 84l176 -229q104 107 163.5 241t59.5 281q0 213 -133 347t-346 134q-133 0 -263.5 -58.5t-230.5 -156t-161.5 -234t-61.5 -282.5z" />
<glyph unicode="R" horiz-adv-x="1419" d="M-4 0l24 119h187l233 1202h-188l24 119h615q173 0 266 -49q152 -85 152 -287q0 -177 -114 -309t-292 -160v-6l17 -21q14 -25 22 -43l141 -356q11 -27 17.5 -39t20 -27.5t33.5 -21.5t50 -6q25 0 39 2q6 2 19 2l-23 -119q-2 0 -15 -1t-31 -2t-32 -1q-52 0 -89.5 13 t-62.5 40.5t-40 56t-31 72.5l-133 344q-22 54 -52 71t-89 17h-218l-96 -491h187l-25 -119h-516zM471 733h334q144 0 250 100.5t106 253.5q0 134 -90 189q-67 41 -209 41h-278z" />
<glyph unicode="S" horiz-adv-x="1175" d="M72 274l24 136h137l-22 -119q-3 -15 -3 -28q0 -45 34 -79q44 -44 112 -61t150 -17q157 0 262.5 84.5t105.5 221.5q0 56 -22 99.5t-59 72.5t-85 52.5t-101 44t-106.5 41.5t-101.5 50t-85 65t-59 90.5t-22 123.5q0 95 43 174.5t116 131t168 79.5t200 28q66 0 134 -14 t128 -41.5t92 -74.5q24 -34 24 -75q0 -15 -3 -30l-29 -144h-137l20 105q2 11 2 21q0 26 -15 47q-21 29 -61.5 44.5t-85 23t-90.5 7.5q-148 0 -251 -76t-103 -200q0 -51 22 -90.5t59 -66.5t85 -49t101 -41.5t105.5 -41t100.5 -52t85 -68t59 -95t22 -129.5q0 -132 -74 -236 t-196 -158.5t-267 -54.5q-57 0 -115.5 9t-118.5 31t-103.5 54.5t-65.5 85.5q-14 34 -14 74q0 22 4 45z" />
<glyph unicode="T" horiz-adv-x="1341" d="M156 1083l71 357h1207l-70 -357h-129l45 234h-401l-236 -1198h188l-22 -119h-520l22 119h189l235 1198h-403l-45 -234h-131z" />
<glyph unicode="U" horiz-adv-x="1628" d="M211 1321l22 119h521l-23 -119h-188l-150 -766q-18 -117 -18 -154q0 -137 90.5 -216t251.5 -79q186 0 307 97q138 108 178 307l160 811h-188l22 119h520l-22 -119h-189l-164 -829q-54 -278 -251 -410q-155 -107 -377 -107q-217 0 -350.5 111.5t-133.5 298.5 q0 31 3.5 60.5t10.5 70t7 41.5l149 764h-188z" />
<glyph unicode="V" horiz-adv-x="1441" d="M164 1321l22 119h461l-24 -119h-164l164 -1067q6 -35 6 -64v-30h6l10 30q3 10 14.5 33.5t14.5 30.5l581 1067h-163l22 119h469l-22 -119h-148l-731 -1321h-158l-213 1321h-147z" />
<glyph unicode="W" horiz-adv-x="2045" d="M174 1321l25 119h458l-24 -119h-172l53 -1059q0 -45 -2 -63q-2 -10 -2 -31h6q3 16 12 31l27 63l559 1178h133l103 -1178q1 -10 1 -21.5t-0.5 -23.5t-0.5 -18v-31h8l10 31l23 63l464 1059h-172l23 119h469l-23 -119h-145l-594 -1321h-168l-98 1133q-2 23 -2 63q0 21 2 31 h-6l-11 -31q-11 -33 -24 -63l-539 -1133h-170l-75 1321h-148z" />
<glyph unicode="X" horiz-adv-x="1327" d="M-61 0l24 119h143l498 614l-256 588h-139l24 119h449l-25 -119h-163l192 -457q4 -7 8.5 -19.5t7.5 -17.5q5 -15 5 -16h4q1 2 10 16q5 9 29 37l360 457h-156l23 119h457l-23 -119h-143l-504 -621l254 -581h145l-22 -119h-451l25 119h157l-190 448q-3 6 -7 20t-7 19l-6 17 h-5q-3 -7 -12 -17q-1 -2 -11 -16.5t-18 -22.5l-354 -448h158l-23 -119h-458z" />
<glyph unicode="Y" horiz-adv-x="1318" d="M162 1321l24 119h449l-25 -119h-159l208 -524q3 -6 6.5 -19t6.5 -18l6 -19h4q4 10 12 19l27 37l418 524h-162l22 119h461l-24 -119h-142l-559 -703l-98 -499h188l-24 -119h-520l24 119h189l98 499l-289 703h-141z" />
<glyph unicode="Z" horiz-adv-x="1282" d="M4 0l21 100l1001 1149q28 31 49 49l23 19v4q-17 0 -25 -2q-14 -2 -55 -2h-619l-45 -234h-131l72 357h1010l-19 -101l-1005 -1149q-24 -27 -50 -49l-22 -18v-4q16 0 24 2q14 2 56 2h649l47 239h131l-72 -362h-1040z" />
<glyph unicode="[" horiz-adv-x="612" d="M59 -195l328 1690h277l-23 -115h-147l-283 -1460h147l-22 -115h-277z" />
<glyph unicode="\" horiz-adv-x="835" d="M274 1520h125l207 -1606h-125z" />
<glyph unicode="]" horiz-adv-x="612" d="M-33 -195l23 115h147l283 1460h-150l25 115h276l-327 -1690h-277z" />
<glyph unicode="^" d="M31 512l405 928h96l408 -928h-135l-320 758l-319 -758h-135z" />
<glyph unicode="_" horiz-adv-x="1118" d="M-106 -119l20 119h1057l-23 -119h-1054z" />
<glyph unicode="`" horiz-adv-x="1032" d="M242 1784h172l153 -244h-141z" />
<glyph unicode="a" horiz-adv-x="1120" d="M10 233q0 69 24 126t64.5 97.5t97.5 71.5t118.5 50t132.5 31.5t134 17t128 4.5h67l8 45q9 38 9 72q0 184 -211 184q-117 0 -220 -47q-45 -19 -90 -49l-43 112q51 33 107 53q136 54 268 54q154 0 242 -71.5t88 -215.5q0 -64 -51.5 -293t-51.5 -268q0 -58 26.5 -77 t70.5 -19q33 0 39 2t14 2l-23 -115q-16 0 -24 -2q-14 -2 -53 -2q-95 0 -145 50q-43 44 -43 127q0 12 1 24h-4q-5 -9 -15.5 -24t-47 -53.5t-77 -67.5t-105.5 -53t-134 -24q-129 0 -215 69.5t-86 188.5zM152 254q0 -72 48 -118t146 -46q90 0 176.5 61.5t143.5 149.5t79 180 l11 45h-60q-45 0 -85 -1.5t-97.5 -8t-104.5 -17.5t-96.5 -31.5t-83.5 -48.5t-55.5 -70.5t-21.5 -94.5z" />
<glyph unicode="b" horiz-adv-x="1228" d="M72 0l256 1325h-185l23 115h323l-96 -498q-2 -11 -16 -65l-10 -29h4q56 94 156 150.5t214 56.5q183 0 282 -110t99 -304q0 -143 -47.5 -269t-125.5 -212t-179.5 -135.5t-208.5 -49.5q-118 0 -203 54.5t-120 156.5h-5q0 -16 -2 -26q-1 -5 -1.5 -17.5t-2 -25t-4.5 -23.5 l-18 -94h-133zM293 391q0 -128 65 -209.5t193 -81.5q76 0 151.5 37t137.5 102.5t100.5 168.5t38.5 223q0 140 -68.5 218.5t-191.5 78.5q-122 0 -221.5 -80t-152 -202t-52.5 -255z" />
<glyph unicode="c" horiz-adv-x="1134" d="M72 424q0 171 90.5 317t240 230t318.5 84q56 0 116.5 -12.5t117.5 -38.5t89 -72q23 -34 22 -73q0 -15 -3 -32l-21 -108h-129l15 76q1 7 1 14q-1 37 -31 64q-36 32 -87.5 44.5t-105.5 12.5q-89 0 -177.5 -39t-157.5 -104t-112 -159t-43 -196q0 -154 93 -243t247 -89 q146 0 262 72q64 40 101 72l45 -115q-49 -43 -111 -76q-144 -78 -307 -78q-212 0 -342.5 121t-130.5 328z" />
<glyph unicode="d" horiz-adv-x="1280" d="M74 389q0 143 47 269t124.5 212t180 135.5t211.5 49.5q113 0 198 -53t119 -154h4q0 11 3 26l6 60l75 391h-184l25 115h323l-229 -1174q-6 -35 -6 -59q0 -57 26.5 -76.5t71.5 -19.5q33 0 39 2t12 2l-22 -115q-17 0 -25 -2q-14 -2 -49 -2q-97 0 -148 51q-41 41 -41 110 q0 18 3 38h-4q-57 -93 -158 -156.5t-221 -63.5q-184 0 -282.5 110t-98.5 304zM217 397q0 -140 68.5 -218.5t191.5 -78.5q74 0 141.5 31.5t118 84.5t88 122t57 146t19.5 153q0 128 -65.5 209.5t-192.5 81.5q-75 0 -150 -37t-137 -102.5t-100.5 -168.5t-38.5 -223z" />
<glyph unicode="e" horiz-adv-x="1132" d="M72 410q0 100 28.5 196t83 176.5t127 142t166.5 96t197 34.5q183 0 276.5 -102t93.5 -271q0 -57 -14 -115q-3 -9 -14 -53h-791l-4 -29q-6 -48 -6 -65q0 -141 86.5 -230.5t243.5 -89.5q109 0 239 64q55 28 99 61l43 -114q-57 -41 -113 -68q-140 -68 -274 -68 q-213 0 -340 119.5t-127 315.5zM250 616h645l4 25q4 28 4 53q0 119 -64 181.5t-171 62.5q-134 0 -247.5 -84.5t-170.5 -237.5z" />
<glyph unicode="f" horiz-adv-x="675" d="M117 915l20 115h182l11 45q14 70 39 127t54.5 95t67 67t71.5 45t71.5 25.5t64 12.5t52.5 3q41 0 55 -2l20 -4l-26 -119q-7 0 -13 2q-8 2 -38 2q-28 0 -54 -4t-62 -19t-64.5 -41t-55.5 -74.5t-41 -113.5l-10 -47h262l-21 -115h-262l-178 -915h-139l176 915h-182z" />
<glyph unicode="g" horiz-adv-x="1255" d="M14 -344l66 104q27 -16 78 -34q101 -33 192 -33q367 0 432 370q3 15 25 101l10 33h-4q-124 -191 -344 -191q-183 0 -287 111t-104 299q0 111 36.5 222.5t103 205t172 152.5t231.5 59t215 -49.5t112 -139.5h4v13q0 2 4 34q11 61 43 89t97 28h186l-20 -115h-127 q-47 0 -56 -43l-166 -858q-24 -119 -79.5 -207t-132 -138.5t-161.5 -74.5t-180 -24q-191 0 -346 86zM221 424q0 -137 72 -215t201 -78q78 0 145 34.5t112.5 90.5t78.5 127.5t48 146.5t15 148q0 252 -264 252q-76 0 -142.5 -29t-114.5 -78.5t-82.5 -114t-51.5 -137.5 t-17 -147z" />
<glyph unicode="h" horiz-adv-x="1286" d="M72 0l256 1325h-176l22 115h315l-106 -559q-5 -35 -16 -64q-10 -26 -11 -29h4q15 28 40.5 60.5t68 70t92 67t115.5 49.5t135 20q137 0 211 -69t74 -198q0 -68 -48.5 -306.5t-48.5 -274.5q0 -59 26.5 -77.5t72.5 -18.5q31 0 39 2q6 2 12 2l-23 -115q-16 0 -24 -2 q-14 -2 -51 -2q-33 0 -63 6.5t-62.5 23.5t-52 54.5t-19.5 91.5q0 43 48 281.5t48 298.5q0 86 -46 129t-128 43q-112 0 -213.5 -63t-169 -165.5t-92.5 -222.5l-90 -473h-139z" />
<glyph unicode="i" horiz-adv-x="606" d="M106 915l23 115h324l-152 -764q-6 -35 -6 -59q0 -57 26.5 -76.5t71.5 -19.5q33 0 39 2t12 2l-22 -115q-17 0 -25 -2q-14 -2 -47 -2q-200 0 -200 180q0 24 10 76l131 663h-185zM348 1266l35 174h158l-35 -174h-158z" />
<glyph unicode="j" horiz-adv-x="565" d="M-238 -416l25 117q6 0 12 -2t33 -2q28 0 55.5 4.5t64.5 21t67 43.5t56.5 78t39.5 119l184 952h-184l22 115h324l-207 -1063q-19 -98 -58 -172t-82 -114t-96.5 -64.5t-93.5 -31.5t-80 -7q-45 0 -59 2zM358 1266l33 174h158l-35 -174h-156z" />
<glyph unicode="k" horiz-adv-x="1093" d="M70 0l260 1325h-185l23 115h324l-160 -811h141l311 286h-139l23 115h430l-23 -115h-127l-366 -337v-5q3 -2 5.5 -4.5t5.5 -6t5 -5.5q28 -39 37 -59l133 -297q14 -31 25 -46.5t35.5 -29.5t60.5 -14q23 0 37 2q6 2 20 2l-22 -115q-2 0 -14 -1t-29 -2t-31 -1q-41 0 -73 10 t-52 22.5t-39.5 40.5t-29 47t-27.5 58l-133 293q-12 28 -31 37.5t-59 9.5h-95l-102 -514h-139z" />
<glyph unicode="l" horiz-adv-x="561" d="M106 180q0 21 11 78l207 1067h-185l23 115h323l-225 -1166q-8 -33 -8 -67q0 -31 7.5 -51t23.5 -28t30 -10.5t37 -2.5q33 0 39 2t12 2l-22 -119l-23 -4q-14 -2 -49 -2q-28 0 -52 3.5t-52.5 15.5t-49 31.5t-34 54.5t-13.5 81z" />
<glyph unicode="m" horiz-adv-x="2009" d="M117 915l22 115h197q58 0 81 -20.5t23 -63.5q0 -19 -11.5 -76.5t-22.5 -87.5h4q54 105 177 189t255 84q135 0 197 -66.5t67 -200.5h4q64 116 179 191.5t245 75.5q138 0 211.5 -70t73.5 -199q0 -66 -48.5 -304t-48.5 -275q0 -59 25.5 -77.5t71.5 -18.5q33 0 39 2t14 2 l-23 -115q-16 0 -24 -2q-14 -2 -51 -2q-33 0 -63 6.5t-62.5 23.5t-52 54.5t-19.5 91.5q0 43 48 283t48 295q0 85 -41.5 131.5t-138.5 46.5q-79 0 -153 -39.5t-129 -103.5t-93 -141.5t-53 -156.5l-94 -487h-140l119 621q19 89 19 137q0 80 -39 125t-135 45q-105 0 -200 -66.5 t-156 -167.5t-83 -213l-94 -481h-139l170 870q2 8 2 14q0 31 -39 31h-139z" />
<glyph unicode="n" horiz-adv-x="1339" d="M117 915l22 115h197q58 0 81 -20.5t23 -63.5q0 -19 -11.5 -75.5t-22.5 -88.5h4q19 38 56 80.5t93 88t138 75t171 29.5q136 0 208.5 -68t72.5 -196q0 -69 -48 -309.5t-48 -274.5q0 -59 26 -77.5t72 -18.5q31 0 39 2q6 2 12 2l-22 -115q-17 0 -25 -2q-14 -2 -51 -2 q-33 0 -63 6.5t-62.5 23.5t-52 54.5t-19.5 91.5q0 43 48.5 281.5t48.5 298.5q0 172 -179 172q-162 0 -300 -134.5t-171 -316.5l-92 -473h-139l170 870q5 20 -4 32.5t-33 12.5h-139z" />
<glyph unicode="o" horiz-adv-x="1277" d="M70 426q0 129 54 246.5t143 200.5t206.5 132.5t241.5 49.5q202 0 330.5 -125t128.5 -320q0 -129 -55 -248t-144 -203t-207 -134t-240 -50q-202 0 -330 126.5t-128 324.5zM213 430q0 -144 91 -237t237 -93q121 0 233 65.5t184 183t72 255.5q0 142 -92.5 234t-237.5 92 q-123 0 -235 -66t-182 -182.5t-70 -251.5z" />
<glyph unicode="p" horiz-adv-x="1282" d="M43 -410l250 1280q5 20 -4 32.5t-33 12.5h-139l22 115h195q57 0 80.5 -21t23.5 -61q0 -36 -26 -108h4q59 94 157.5 154.5t221.5 60.5q183 0 282 -110t99 -304q0 -143 -47 -269t-125 -212t-179 -135.5t-207 -49.5q-116 0 -202.5 53t-120.5 154h-4q0 -18 -2 -28 q-6 -50 -10 -70l-97 -494h-139zM348 397q0 -129 66 -213t192 -84q77 0 152.5 37t136.5 102.5t99 168t38 223.5q0 140 -68.5 218.5t-191.5 78.5q-91 0 -172 -47t-135 -123t-85.5 -171t-31.5 -190z" />
<glyph unicode="q" horiz-adv-x="1228" d="M74 387q0 143 47 269.5t125.5 212.5t181 136t211.5 50q119 0 201.5 -53t117.5 -156h5q0 14 2 22q0 2 1 22t5 34l20 106h135l-260 -1327h185l-23 -113h-323l98 496q15 66 16 70l10 28h-4q-57 -90 -150 -149.5t-220 -59.5q-184 0 -282.5 109.5t-98.5 302.5zM217 397 q0 -140 68.5 -218.5t191.5 -78.5q74 0 141.5 31.5t118 84.5t88 122t57 146t19.5 153q0 128 -64.5 209.5t-191.5 81.5q-76 0 -151.5 -37t-137.5 -102.5t-100.5 -168.5t-38.5 -223z" />
<glyph unicode="r" horiz-adv-x="784" d="M115 915l22 115h197q58 0 81 -20.5t23 -63.5q0 -20 -14.5 -85t-26.5 -103h4q59 121 158 201.5t219 80.5q38 0 62 -6l-27 -137q-28 4 -51 4q-79 0 -153 -48.5t-127.5 -125.5t-91 -164.5t-54.5 -173.5l-74 -389h-139l168 870q2 8 2 15q0 30 -39 30h-139z" />
<glyph unicode="s" horiz-adv-x="970" d="M23 219l18 100h127l-14 -77q-2 -11 -2 -22q0 -30 18 -53q24 -31 67.5 -45.5t83.5 -20t80 -5.5q111 0 191 49.5t80 133.5q0 44 -28 78.5t-72 57.5t-98 44.5t-108 46t-98 55t-72 78.5t-28 109q0 94 60.5 166t153.5 106.5t200 34.5q88 0 160 -23t114 -72q32 -37 32 -84 q0 -14 -3 -30l-23 -111h-129l19 86q6 32 -11 55.5t-49.5 35t-66 17t-68.5 5.5q-99 0 -174.5 -46.5t-75.5 -127.5q0 -44 28 -78t72.5 -56.5t98.5 -42.5t108 -43.5t98.5 -53t72.5 -77t28 -108.5q0 -142 -119.5 -234t-314.5 -92q-69 0 -135 14.5t-121 42.5t-83 77 q-20 34 -21 75q0 17 4 35z" />
<glyph unicode="t" horiz-adv-x="688" d="M94 915l23 115h188l55 285h136l-56 -285h260l-22 -115h-260l-101 -528q-10 -44 -10 -90q0 -186 178 -186q35 0 41 2t17 2l-25 -119q-8 0 -14 -2t-37 -2q-44 0 -82 6.5t-80 25.5t-71.5 50t-48.5 84.5t-19 124.5q0 47 12 112l101 520h-185z" />
<glyph unicode="u" horiz-adv-x="1329" d="M92 915l21 115h323l-119 -614q-18 -99 -18 -144q0 -81 40.5 -124.5t139.5 -43.5q83 0 162.5 40t139.5 104.5t102.5 145t58.5 163.5l68 358h-183l23 115h324l-150 -764q-6 -35 -6 -59q0 -57 26.5 -76.5t71.5 -19.5q31 0 39 2q6 2 12 2l-22 -115q-17 0 -27 -2 q-16 -2 -51 -2q-109 0 -154 66q-31 45 -31 109q0 30 7 65h-4q-26 -43 -63.5 -84t-92.5 -83t-131 -68t-160 -26q-125 0 -203.5 65t-78.5 200q0 55 16 137l102 538h-182z" />
<glyph unicode="v" horiz-adv-x="1155" d="M80 915l20 115h422l-22 -115h-148l125 -690q4 -12 4 -53v-27h6l9 27q7 19 26 53l393 690h-149l22 115h433l-23 -115h-135l-528 -915h-150l-170 915h-135z" />
<glyph unicode="w" horiz-adv-x="1748" d="M86 915l20 115h422l-20 -115h-156l82 -692v-53q0 -19 -2 -27h6l8 27l23 53l416 803h137l100 -803q2 -18 2 -53v-27h4l9 27l22 53l350 692h-153l22 115h432l-22 -115h-133l-471 -915h-150l-104 772q-4 36 -4 55v27h-4q-1 -4 -2.5 -8t-4.5 -9.5t-4 -9.5q-14 -36 -24 -55 l-406 -772h-149l-115 915h-131z" />
<glyph unicode="x" horiz-adv-x="1112" d="M-53 0l20 115h154l344 424l-141 338q-11 24 -21.5 31t-34.5 7h-135l21 115h180q41 0 59.5 -15.5t36.5 -58.5l109 -266q3 -6 7 -20t7 -19l6 -18h4q3 9 12 18q2 3 11.5 18t17.5 23l270 338h252l-22 -115h-164l-322 -389l140 -325q20 -48 45.5 -69t83.5 -21q35 0 49 2 q8 2 22 2l-22 -115q-1 0 -30.5 -2t-49.5 -2q-55 0 -92.5 11.5t-62 38t-37.5 50t-32 66.5q-3 8 -5 12l-80 203q-2 5 -7 19t-8 20l-6 18h-4q-3 -9 -10 -16q-2 -3 -12.5 -18.5t-18.5 -24.5l-297 -375h-237z" />
<glyph unicode="y" horiz-adv-x="1181" d="M-106 -369l69 105q14 -14 35 -23q46 -20 92 -20q129 0 229 164l84 137l-188 921h-135l22 115h426l-22 -115h-150l133 -702q5 -15 5 -51v-23h4l10 23q5 10 27 51l405 702h-149l22 115h432l-22 -115h-136l-653 -1105q-144 -240 -348 -240q-79 0 -143 31q-31 18 -49 30z" />
<glyph unicode="z" horiz-adv-x="1060" d="M-20 0l18 98l723 729q52 52 61 60l31 28v5q-17 0 -27 -2q-24 -3 -73 -3h-400l-34 -182h-125l57 297h809l-21 -100l-723 -727q-22 -22 -44.5 -43.5t-36 -33.5t-13.5 -11v-4q19 0 29 2q18 2 74 2h450l35 182h127l-57 -297h-860z" />
<glyph unicode="{" horiz-adv-x="663" d="M78 598l24 127q49 8 95 37q96 65 125 199l34 174q19 98 57 169t79.5 107.5t95 57t92.5 24.5t82 2l-23 -115q-20 2 -44 -0.5t-57.5 -17.5t-62 -41t-54.5 -77t-38 -120l-41 -206q-29 -132 -123 -207q-39 -31 -92 -47v-5q27 -14 60 -47q59 -63 59 -159q0 -25 -6 -60 l-43 -217q-10 -65 -10 -92q0 -166 170 -166l-25 -115q-2 -2 -8 -2h-23q-23 0 -48.5 4.5t-62.5 20.5t-65 42.5t-48.5 76.5t-20.5 116q0 40 14 115l35 189q6 35 6 61q0 95 -66 145q-31 24 -67 27z" />
<glyph unicode="|" horiz-adv-x="653" d="M270 -322v1936h129v-1936h-129z" />
<glyph unicode="}" horiz-adv-x="663" d="M-78 -197l21 115q22 -2 46 1t57 17.5t61 40.5t54 77t40 120l43 229q28 137 123 213q41 33 92 48v4q-29 13 -58 45q-59 63 -59 155q0 26 6 60l37 196q10 44 10 90q0 166 -168 166l23 115q21 5 49 1t59 -10t61 -26t53.5 -47t38.5 -73t15 -103q0 -40 -14 -115l-31 -164 q-6 -38 -6 -63q0 -94 68 -143q34 -24 67 -29l-26 -127q-49 -8 -95 -37q-96 -64 -124 -199l-39 -196q-19 -97 -57 -168.5t-80 -109t-94.5 -58t-92.5 -25t-80 -0.5z" />
<glyph unicode="~" horiz-adv-x="1214" d="M137 428q0 163 69 240t191 77q62 0 110.5 -22t81 -53.5t62 -62.5t68.5 -53t86 -22q43 0 74 20.5t45 54.5t20 65.5t6 64.5h121q0 -161 -69.5 -239t-190.5 -78q-61 0 -109.5 22t-81 53t-62.5 62.5t-69 53.5t-86 22q-43 0 -74 -20.5t-45 -54.5t-20 -65.5t-6 -64.5h-121z" />
<glyph unicode="&#xa1;" horiz-adv-x="464" d="M-37 -410l215 1063h129l-201 -1063h-143zM201 868l35 162h159l-33 -162h-161z" />
<glyph unicode="&#xa2;" horiz-adv-x="1132" d="M109 586q0 122 40 244t110.5 222t177 166t229.5 74l32 172h117l-35 -176q172 -29 262 -166q39 -60 58 -133l-129 -49q-12 61 -47 111q-78 110 -219 110q-132 0 -236 -80.5t-158.5 -210.5t-54.5 -282q0 -142 68 -224.5t208 -82.5q143 0 261 110q51 48 90 109l123 -51 q-49 -84 -111 -146q-148 -148 -338 -158l-33 -172h-114l32 179q-156 24 -244.5 137t-88.5 297z" />
<glyph unicode="&#xa3;" horiz-adv-x="1245" d="M-18 0l22 121h180l107 547h-139l22 112h137l64 318q28 156 161 261t310 105q127 0 235 -61q48 -28 82 -62l-98 -92q-21 24 -57 43q-70 41 -164 41q-130 0 -219.5 -74t-110.5 -182l-57 -297h387l-23 -112h-387l-106 -547h596l49 241h129l-70 -362h-1050z" />
<glyph unicode="&#xa5;" horiz-adv-x="1286" d="M199 432l18 105h334l16 79l-39 101h-276l22 104h218l-240 619h156l192 -512q27 -79 39 -121l18 -62h5l38 60q73 111 82 123l392 512h172l-482 -619h215l-20 -104h-273l-75 -101l-17 -79h330l-18 -105h-330l-86 -432h-144l86 432h-333z" />
<glyph unicode="&#xa7;" horiz-adv-x="827" d="M-14 -37l84 88q10 -7 43 -26q56 -29 114 -29q121 0 194.5 79t78.5 201l37 887h120l-34 -884q0 -169 -110.5 -287.5t-287.5 -118.5q-96 0 -176 45q-33 19 -63 45zM199 174l34 885q0 172 109 288.5t289 116.5q96 0 176 -45q33 -19 63 -45l-86 -88q-21 18 -41 29 q-50 26 -114 26q-121 0 -194.5 -79t-78.5 -201l-37 -887h-120z" />
<glyph unicode="&#xa8;" horiz-adv-x="1032" d="M135 1608l35 176h141l-35 -176h-141zM510 1608l35 176h143l-37 -176h-141z" />
<glyph unicode="&#xa9;" horiz-adv-x="1681" d="M137 721q0 153 57 290.5t153.5 236.5t230.5 157.5t282 58.5q150 0 286 -58.5t234 -157.5t155.5 -236.5t57.5 -290.5q0 -154 -57.5 -292.5t-155.5 -238t-233.5 -157.5t-286.5 -58q-148 0 -282 58t-230.5 157.5t-153.5 238t-57 292.5zM256 721q0 -176 80 -322t218.5 -229.5 t305.5 -83.5q170 0 311 83.5t221.5 229.5t80.5 322q0 175 -80.5 320t-221.5 229t-311 84q-166 0 -305 -84t-219 -229.5t-80 -319.5zM459 717q0 110 48 204.5t146 156t228 61.5q138 0 249 -95q50 -40 84 -96l-94 -63q-25 42 -61 71q-82 70 -174 70q-142 0 -223.5 -90.5 t-81.5 -216.5q0 -127 81 -217t224 -90q97 0 176 71q36 31 59 70l94 -64q-36 -55 -84 -94q-112 -96 -249 -96q-131 0 -229 60.5t-145.5 154t-47.5 203.5z" />
<glyph unicode="&#xaa;" horiz-adv-x="882" d="M158 541l18 96h539l-19 -96h-538zM242 952q0 50 19 90.5t47 66t70 44t78 28t82.5 14.5t72.5 6t57 1h39q0 6 2 8t2 7v2q12 69 -17 107t-100 38q-54 0 -127 -29q-24 -9 -57 -28l-39 84q53 27 69 34q84 35 172 35q215 0 215 -190q0 -28 -10 -80l-78 -395h-108l20 102h-4 q-20 -33 -55 -57q-73 -58 -158 -58q-76 0 -134 44t-58 126zM360 965q0 -39 27 -62.5t80 -23.5q78 0 140.5 75.5t82.5 161.5h-26q-304 0 -304 -151z" />
<glyph unicode="&#xab;" horiz-adv-x="1075" d="M94 582l393 417h160l-409 -428l260 -413h-142zM455 582l422 417h161l-440 -428l260 -413h-141z" />
<glyph unicode="&#xac;" horiz-adv-x="1290" d="M160 700v119h954v-495h-125v376h-829z" />
<glyph unicode="&#xad;" horiz-adv-x="1009" d="M197 518l22 127h582l-23 -127h-581z" />
<glyph unicode="&#xae;" horiz-adv-x="1681" d="M137 721q0 153 57 290.5t153.5 236.5t230.5 157.5t282 58.5q150 0 286 -58.5t234 -157.5t155.5 -236.5t57.5 -290.5q0 -154 -57.5 -292.5t-155.5 -238t-233.5 -157.5t-286.5 -58q-148 0 -282 58t-230.5 157.5t-153.5 238t-57 292.5zM256 721q0 -176 80 -322t218.5 -229.5 t305.5 -83.5q170 0 311 83.5t221.5 229.5t80.5 322q0 175 -80.5 320t-221.5 229t-311 84q-166 0 -305 -84t-219 -229.5t-80 -319.5zM616 322v798h285q109 0 175.5 -64.5t66.5 -172.5q0 -85 -44.5 -140.5t-107.5 -70.5v-4l6 -11q11 -11 21 -34l156 -301h-130l-157 323h-154 v-323h-117zM733 735h150q66 0 103.5 39.5t37.5 108.5q0 67 -37.5 104t-103.5 37h-150v-289z" />
<glyph unicode="&#xaf;" horiz-adv-x="1032" d="M147 1608l21 112h506l-21 -112h-506z" />
<glyph unicode="&#xb0;" horiz-adv-x="784" d="M209 1141q0 127 101 224t229 97q114 0 185 -70.5t71 -177.5q0 -125 -103 -223t-227 -98q-115 0 -185.5 69.5t-70.5 178.5zM332 1145q0 -61 37 -99t102 -38q80 0 140.5 60.5t60.5 141.5q0 60 -39 99t-101 39q-79 0 -139.5 -61.5t-60.5 -141.5z" />
<glyph unicode="&#xb1;" d="M82 522v119h473v522h125v-522h471v-119h-471v-522h-125v522h-473zM119 -213h995v-119h-995v119z" />
<glyph unicode="&#xb2;" horiz-adv-x="866" d="M188 866q2 83 34 152t82 116.5t110.5 88t120.5 75t109.5 69.5t80.5 80.5t31 98.5q0 55 -38 91t-102 36q-67 0 -143 -49q-20 -12 -59 -51l-66 78q38 38 78 63q95 64 197 64q117 0 184 -61.5t67 -162.5q0 -77 -36.5 -140.5t-91.5 -104t-122.5 -81.5t-127.5 -74.5 t-108.5 -83t-63.5 -105.5h360l23 112h100l-39 -211h-580z" />
<glyph unicode="&#xb3;" horiz-adv-x="823" d="M180 981l80 74q26 -33 55 -51q75 -52 162 -52q86 0 152.5 62.5t66.5 152.5q0 64 -51 102t-121 38h-63l-19 61l265 254q19 19 34 31q7 7 17 10v4q-11 0 -17 -2q-28 -4 -43 -4h-239l-23 -113h-102l41 209h545l-15 -74l-301 -288q33 -4 67 -18.5t67 -40t54 -70t21 -99.5 q0 -127 -99.5 -224t-236.5 -97q-127 0 -221 67q-37 25 -76 68z" />
<glyph unicode="&#xb4;" horiz-adv-x="1032" d="M190 1540l250 244h187l-281 -244h-156z" />
<glyph unicode="&#xb6;" horiz-adv-x="1179" d="M150 903q0 142 82 267.5t212 197.5t269 72h514l-25 -127h-371l-274 -1415h-119l117 596q-106 0 -198.5 52t-149.5 146.5t-57 210.5zM684 -102l250 1292h117l-250 -1292h-117z" />
<glyph unicode="&#xb7;" horiz-adv-x="569" d="M182 504l33 170h164l-33 -170h-164z" />
<glyph unicode="&#xb8;" horiz-adv-x="1032" d="M197 -418l18 90l25 -6q28 -4 59 -4q48 0 85.5 18.5t37.5 63.5q0 29 -30 46t-81 17h-28l102 234l78 -14l-2 -17l-53 -129q57 -8 93 -43t36 -92q0 -58 -38.5 -99.5t-90 -59t-107.5 -17.5q-49 0 -76 6z" />
<glyph unicode="&#xb9;" horiz-adv-x="817" d="M190 866l19 99h215l108 567q5 34 13 53l6 21h-4l-15 -17l-38 -37l-113 -94l-59 80l264 219h106l-155 -792h211l-21 -99h-537z" />
<glyph unicode="&#xba;" horiz-adv-x="978" d="M168 541l18 96h619l-19 -96h-618zM242 1067q0 107 57 198.5t149 144t195 52.5q130 0 210.5 -79t80.5 -201q0 -81 -34.5 -155.5t-90.5 -127.5t-129.5 -84t-149.5 -31q-130 0 -209 79t-79 204zM354 1075q0 -86 51 -136t136 -50q107 0 193.5 84t86.5 203q0 82 -52 133 t-136 51q-108 0 -193.5 -84t-85.5 -201z" />
<glyph unicode="&#xbb;" horiz-adv-x="1079" d="M33 158l438 428l-260 413h141l262 -424l-419 -417h-162zM422 158l409 428l-260 413h142l262 -424l-391 -417h-162z" />
<glyph unicode="&#xbc;" horiz-adv-x="1923" d="M111 549l18 98h215l109 567q6 40 12 54l6 20h-4l-14 -16l-39 -37l-113 -94l-59 80l264 219h106l-155 -793h211l-21 -98h-536zM424 0l967 1440h127l-967 -1440h-127zM1094 236l14 75l545 580h112l-108 -559h133l-18 -96h-134l-47 -236h-112l47 236h-432zM1245 332h299 l64 330q4 23 16 59q4 11 8 29h-4l-16 -25q-15 -21 -43 -49l-324 -340v-4z" />
<glyph unicode="&#xbd;" horiz-adv-x="1882" d="M94 549l19 98h215l108 567q6 36 13 54l6 20h-4l-15 -16l-39 -37l-112 -94l-60 80l264 219h107l-156 -793h211l-20 -98h-537zM410 0l966 1440h127l-966 -1440h-127zM1092 0q2 83 34 152t82 116.5t110.5 88t120 75t109 69.5t80.5 80.5t31 98.5q0 56 -37.5 91.5t-101.5 35.5 q-68 0 -144 -49q-20 -12 -59 -51l-66 77q41 41 78 64q94 63 197 63q117 0 184.5 -61t67.5 -162q0 -67 -27 -123t-71 -95.5t-98 -74t-110.5 -66.5t-106 -64t-87.5 -75t-51 -92h360l23 113h100l-39 -211h-579z" />
<glyph unicode="&#xbe;" horiz-adv-x="1961" d="M117 664l80 73q26 -33 55 -51q74 -51 162 -51q86 0 152.5 62.5t66.5 152.5q0 64 -51 101.5t-121 37.5h-64l-18 62l264 254q10 10 35 30q8 9 16 11v4q-10 0 -16 -2q-35 -5 -43 -5h-240l-22 -112h-103l41 209h545l-14 -74l-301 -289q33 -4 67 -18.5t67 -40t54 -69.5t21 -99 q0 -127 -99.5 -224.5t-236.5 -97.5q-126 0 -221 68q-37 25 -76 68zM455 0l966 1440h127l-966 -1440h-127zM1124 236l15 75l544 580h113l-108 -559h133l-19 -96h-133l-47 -236h-113l47 236h-432zM1276 332h299l63 330q3 17 17 59q4 11 8 29h-4l-17 -25q-15 -21 -43 -49 l-323 -340v-4z" />
<glyph unicode="&#xbf;" horiz-adv-x="940" d="M-18 -119q0 75 24 139t64 111.5t88 89.5t99 81t95 77.5t78 88t45 103.5l19 82h137l-19 -88q-13 -69 -47 -129t-77.5 -103.5t-92.5 -84t-95.5 -78t-84.5 -77t-61 -90t-23 -107.5q0 -86 60.5 -139.5t164.5 -53.5q95 0 187 43q36 17 78 43l59 -113q-56 -36 -98 -53 q-124 -53 -240 -53q-164 0 -262 85t-98 226zM520 868l33 162h162l-33 -162h-162z" />
<glyph unicode="&#xc0;" horiz-adv-x="1464" d="M-94 0l22 119h146l741 1321h160l227 -1321h146l-23 -119h-455l23 119h166l-64 370h-561l-207 -370h164l-24 -119h-461zM498 610h481l-98 590q-4 15 -5 40l-2 24q-2 10 -2 28h-4q-1 -6 -10 -28q-11 -29 -29 -64zM684 1784h172l154 -244h-142z" />
<glyph unicode="&#xc1;" horiz-adv-x="1464" d="M-94 0l22 119h146l741 1321h160l227 -1321h146l-23 -119h-455l23 119h166l-64 370h-561l-207 -370h164l-24 -119h-461zM498 610h481l-98 590q-4 15 -5 40l-2 24q-2 10 -2 28h-4q-1 -6 -10 -28q-11 -29 -29 -64zM811 1540l250 244h186l-280 -244h-156z" />
<glyph unicode="&#xc2;" horiz-adv-x="1464" d="M-94 0l22 119h146l741 1321h160l227 -1321h146l-23 -119h-455l23 119h166l-64 370h-561l-207 -370h164l-24 -119h-461zM498 610h481l-98 590q-4 15 -5 40l-2 24q-2 10 -2 28h-4q-1 -6 -10 -28q-11 -29 -29 -64zM651 1540l221 244h166l123 -244h-135l-78 166h-4l-143 -166 h-150z" />
<glyph unicode="&#xc3;" horiz-adv-x="1464" d="M-94 0l22 119h146l741 1321h160l227 -1321h146l-23 -119h-455l23 119h166l-64 370h-561l-207 -370h164l-24 -119h-461zM498 610h481l-98 590q-4 15 -5 40l-2 24q-2 10 -2 28h-4q-1 -6 -10 -28q-11 -29 -29 -64zM606 1546q48 240 217 240q39 0 69 -15t48.5 -36t34 -42 t34 -36t40.5 -15q74 0 102 138h119q-23 -117 -79 -178.5t-138 -61.5q-38 0 -67.5 14.5t-48 35t-34.5 41.5t-35 35.5t-41 14.5q-77 0 -102 -135h-119z" />
<glyph unicode="&#xc4;" horiz-adv-x="1464" d="M-94 0l22 119h146l741 1321h160l227 -1321h146l-23 -119h-455l23 119h166l-64 370h-561l-207 -370h164l-24 -119h-461zM498 610h481l-98 590q-4 15 -5 40l-2 24q-2 10 -2 28h-4q-1 -6 -10 -28q-11 -29 -29 -64zM670 1608l35 176h141l-35 -176h-141zM1044 1608l35 176h144 l-37 -176h-142z" />
<glyph unicode="&#xc5;" horiz-adv-x="1464" d="M-94 0l22 119h146l741 1321h160l227 -1321h146l-23 -119h-455l23 119h166l-64 370h-561l-207 -370h164l-24 -119h-461zM498 610h481l-98 590q-4 15 -5 40l-2 24q-2 10 -2 28h-4q-1 -6 -10 -28q-11 -29 -29 -64zM768 1642q0 74 59 125.5t131 51.5q67 0 109.5 -37t42.5 -99 q0 -73 -59 -124.5t-133 -51.5q-64 0 -107 37.5t-43 97.5zM864 1645q0 -58 60 -58q41 0 65.5 27t24.5 69q0 58 -62 58q-36 0 -62 -27t-26 -69z" />
<glyph unicode="&#xc6;" horiz-adv-x="1900" d="M-86 0l25 119h131l727 1202h-160l22 119h1252l-60 -299h-127l35 176h-555l-104 -531h540l-24 -122h-541l-104 -541h594l34 178h127l-59 -301h-1044l22 119h180l107 547h-381l-328 -547h160l-25 -119h-444zM623 784h333l105 533h-117z" />
<glyph unicode="&#xc7;" horiz-adv-x="1521" d="M129 600q0 176 72 337t191 276t278 183t327 68q39 0 82 -3.5t96 -12t101.5 -22t93.5 -36t75.5 -50.5t44 -69t3.5 -89l-31 -158h-137l23 119q10 53 -22.5 92.5t-92 60t-120.5 30t-120 9.5q-141 0 -273 -59t-229.5 -156.5t-156 -231.5t-58.5 -278q0 -225 132 -365.5 t352 -140.5q63 0 132.5 11.5t136.5 34t115 62.5t58 89l23 113h137l-29 -152q-16 -74 -78.5 -132t-149 -90.5t-175.5 -48.5t-172 -16h-10l-37 -94q57 -8 92 -42.5t35 -92.5t-37.5 -99.5t-88.5 -59t-108 -17.5q-51 0 -78 6l-28 6l18 90l25 -6q28 -4 59 -4q48 0 85.5 18.5 t37.5 63.5q0 29 -29 46t-80 17h-30l75 175q-245 29 -387.5 197t-142.5 421z" />
<glyph unicode="&#xc8;" horiz-adv-x="1284" d="M-4 0l24 119h187l233 1202h-188l24 119h1016l-59 -299h-129l35 176h-555l-103 -531h543l-25 -122h-542l-107 -541h594l37 186h129l-61 -309h-1053zM608 1784h172l154 -244h-141z" />
<glyph unicode="&#xc9;" horiz-adv-x="1284" d="M-4 0l24 119h187l233 1202h-188l24 119h1016l-59 -299h-129l35 176h-555l-103 -531h543l-25 -122h-542l-107 -541h594l37 186h129l-61 -309h-1053zM733 1540l250 244h186l-280 -244h-156z" />
<glyph unicode="&#xca;" horiz-adv-x="1284" d="M-4 0l24 119h187l233 1202h-188l24 119h1016l-59 -299h-129l35 176h-555l-103 -531h543l-25 -122h-542l-107 -541h594l37 186h129l-61 -309h-1053zM575 1540l222 244h166l122 -244h-135l-78 166h-4l-143 -166h-150z" />
<glyph unicode="&#xcb;" horiz-adv-x="1284" d="M-4 0l24 119h187l233 1202h-188l24 119h1016l-59 -299h-129l35 176h-555l-103 -531h543l-25 -122h-542l-107 -541h594l37 186h129l-61 -309h-1053zM594 1608l35 176h141l-35 -176h-141zM969 1608l35 176h143l-37 -176h-141z" />
<glyph unicode="&#xcc;" horiz-adv-x="745" d="M-2 0l22 119h187l233 1202h-186l22 119h521l-23 -119h-190l-234 -1202h189l-23 -119h-518zM322 1784h172l153 -244h-141z" />
<glyph unicode="&#xcd;" horiz-adv-x="745" d="M-2 0l22 119h187l233 1202h-186l22 119h521l-23 -119h-190l-234 -1202h189l-23 -119h-518zM449 1540l249 244h187l-281 -244h-155z" />
<glyph unicode="&#xce;" horiz-adv-x="745" d="M-2 0l22 119h187l233 1202h-186l22 119h521l-23 -119h-190l-234 -1202h189l-23 -119h-518zM289 1540l221 244h166l123 -244h-135l-78 166h-4l-144 -166h-149z" />
<glyph unicode="&#xcf;" horiz-adv-x="745" d="M-2 0l22 119h187l233 1202h-186l22 119h521l-23 -119h-190l-234 -1202h189l-23 -119h-518zM309 1608l35 176h141l-34 -176h-142zM684 1608l35 176h143l-37 -176h-141z" />
<glyph unicode="&#xd0;" horiz-adv-x="1611" d="M-2 0l22 119h187l106 543h-159l22 122h160l106 537h-188l22 119h625q294 0 460.5 -146.5t166.5 -412.5q0 -180 -63.5 -341.5t-174.5 -280.5t-271.5 -189t-344.5 -70h-676zM350 123h307q206 0 371.5 98t258.5 269t93 382q0 215 -129 330t-360 115h-305l-107 -533h348 l-24 -122h-346z" />
<glyph unicode="&#xd1;" horiz-adv-x="1705" d="M-4 0l24 119h187l233 1202h-188l24 119h322l584 -1143q5 -9 12 -31t8 -24q4 -11 8 -29h4l5 33q6 56 8 61l200 1014h-190l23 119h522l-23 -119h-188l-258 -1321h-137l-586 1145q-5 9 -11 30t-8 25l-8 29h-4q0 -23 -2 -33q-2 -22 -10 -61l-197 -1016h191l-25 -119h-520z M737 1546q48 240 217 240q39 0 69 -15t48.5 -36t34 -42t34 -36t40.5 -15q74 0 102 138h119q-23 -117 -79 -178.5t-138 -61.5q-38 0 -67.5 14.5t-48 35t-34.5 41.5t-35 35.5t-41 14.5q-77 0 -102 -135h-119z" />
<glyph unicode="&#xd2;" horiz-adv-x="1691" d="M125 598q0 172 74 332.5t194.5 277t281 186.5t326.5 70q272 0 443.5 -170.5t171.5 -435.5q0 -174 -74.5 -338t-195.5 -283t-282 -190.5t-327 -71.5q-181 0 -320.5 80t-215.5 221.5t-76 321.5zM270 602q0 -218 133.5 -357t346.5 -139q131 0 261 60t231 159.5t163.5 238.5 t62.5 288q0 213 -133 347t-348 134q-133 0 -263.5 -58.5t-230.5 -156t-161.5 -234t-61.5 -282.5zM799 1784h172l153 -244h-141z" />
<glyph unicode="&#xd3;" horiz-adv-x="1691" d="M125 598q0 172 74 332.5t194.5 277t281 186.5t326.5 70q272 0 443.5 -170.5t171.5 -435.5q0 -174 -74.5 -338t-195.5 -283t-282 -190.5t-327 -71.5q-181 0 -320.5 80t-215.5 221.5t-76 321.5zM270 602q0 -218 133.5 -357t346.5 -139q131 0 261 60t231 159.5t163.5 238.5 t62.5 288q0 213 -133 347t-348 134q-133 0 -263.5 -58.5t-230.5 -156t-161.5 -234t-61.5 -282.5zM924 1540l250 244h186l-281 -244h-155z" />
<glyph unicode="&#xd4;" horiz-adv-x="1691" d="M125 598q0 172 74 332.5t194.5 277t281 186.5t326.5 70q272 0 443.5 -170.5t171.5 -435.5q0 -174 -74.5 -338t-195.5 -283t-282 -190.5t-327 -71.5q-181 0 -320.5 80t-215.5 221.5t-76 321.5zM270 602q0 -218 133.5 -357t346.5 -139q131 0 261 60t231 159.5t163.5 238.5 t62.5 288q0 213 -133 347t-348 134q-133 0 -263.5 -58.5t-230.5 -156t-161.5 -234t-61.5 -282.5zM766 1540l221 244h166l123 -244h-135l-78 166h-4l-144 -166h-149z" />
<glyph unicode="&#xd5;" horiz-adv-x="1691" d="M125 598q0 172 74 332.5t194.5 277t281 186.5t326.5 70q272 0 443.5 -170.5t171.5 -435.5q0 -174 -74.5 -338t-195.5 -283t-282 -190.5t-327 -71.5q-181 0 -320.5 80t-215.5 221.5t-76 321.5zM270 602q0 -218 133.5 -357t346.5 -139q131 0 261 60t231 159.5t163.5 238.5 t62.5 288q0 213 -133 347t-348 134q-133 0 -263.5 -58.5t-230.5 -156t-161.5 -234t-61.5 -282.5zM721 1546q48 240 217 240q39 0 69 -15t48 -36t33.5 -42t34 -36t40.5 -15q75 0 103 138h118q-23 -117 -79 -178.5t-138 -61.5q-38 0 -67.5 14.5t-48 35t-34 41.5t-34.5 35.5 t-41 14.5q-77 0 -102 -135h-119z" />
<glyph unicode="&#xd6;" horiz-adv-x="1691" d="M125 598q0 172 74 332.5t194.5 277t281 186.5t326.5 70q272 0 443.5 -170.5t171.5 -435.5q0 -174 -74.5 -338t-195.5 -283t-282 -190.5t-327 -71.5q-181 0 -320.5 80t-215.5 221.5t-76 321.5zM270 602q0 -218 133.5 -357t346.5 -139q131 0 261 60t231 159.5t163.5 238.5 t62.5 288q0 213 -133 347t-348 134q-133 0 -263.5 -58.5t-230.5 -156t-161.5 -234t-61.5 -282.5zM784 1608l35 176h142l-35 -176h-142zM1159 1608l35 176h143l-37 -176h-141z" />
<glyph unicode="&#xd7;" d="M94 84l443 498l-443 497l84 84l438 -493l439 493l84 -84l-445 -497l445 -498l-84 -84l-439 494l-438 -494z" />
<glyph unicode="&#xd8;" horiz-adv-x="1693" d="M125 598q0 171 74 332t193.5 277t277 186.5t319.5 70.5q223 0 383 -114l129 141l80 -66l-129 -141q164 -167 164 -426q0 -140 -47.5 -274.5t-132 -243t-193 -191.5t-236.5 -128.5t-257 -45.5q-227 0 -390 119l-131 -143l-82 63l138 150q-160 168 -160 434zM272 602 q0 -201 113 -332l891 975q-121 86 -287 86q-89 0 -178 -26.5t-168 -73.5t-147.5 -114.5t-118 -147t-77.5 -174.5t-28 -193zM457 199q126 -90 295 -90q132 0 262 59t230 158t162 238t62 288q0 195 -116 324z" />
<glyph unicode="&#xd9;" horiz-adv-x="1628" d="M211 1321l22 119h521l-23 -119h-188l-150 -766q-18 -117 -18 -154q0 -137 90.5 -216t251.5 -79q186 0 307 97q138 108 178 307l160 811h-188l22 119h520l-22 -119h-189l-164 -829q-54 -278 -251 -410q-155 -107 -377 -107q-217 0 -350.5 111.5t-133.5 298.5 q0 31 3.5 60.5t10.5 70t7 41.5l149 764h-188zM764 1784h172l154 -244h-142z" />
<glyph unicode="&#xda;" horiz-adv-x="1628" d="M211 1321l22 119h521l-23 -119h-188l-150 -766q-18 -117 -18 -154q0 -137 90.5 -216t251.5 -79q186 0 307 97q138 108 178 307l160 811h-188l22 119h520l-22 -119h-189l-164 -829q-54 -278 -251 -410q-155 -107 -377 -107q-217 0 -350.5 111.5t-133.5 298.5 q0 31 3.5 60.5t10.5 70t7 41.5l149 764h-188zM889 1540l250 244h186l-281 -244h-155z" />
<glyph unicode="&#xdb;" horiz-adv-x="1628" d="M211 1321l22 119h521l-23 -119h-188l-150 -766q-18 -117 -18 -154q0 -137 90.5 -216t251.5 -79q186 0 307 97q138 108 178 307l160 811h-188l22 119h520l-22 -119h-189l-164 -829q-54 -278 -251 -410q-155 -107 -377 -107q-217 0 -350.5 111.5t-133.5 298.5 q0 31 3.5 60.5t10.5 70t7 41.5l149 764h-188zM731 1540l221 244h166l123 -244h-135l-78 166h-4l-143 -166h-150z" />
<glyph unicode="&#xdc;" horiz-adv-x="1628" d="M211 1321l22 119h521l-23 -119h-188l-150 -766q-18 -117 -18 -154q0 -137 90.5 -216t251.5 -79q186 0 307 97q138 108 178 307l160 811h-188l22 119h520l-22 -119h-189l-164 -829q-54 -278 -251 -410q-155 -107 -377 -107q-217 0 -350.5 111.5t-133.5 298.5 q0 31 3.5 60.5t10.5 70t7 41.5l149 764h-188zM750 1608l34 176h142l-35 -176h-141zM1124 1608l35 176h144l-37 -176h-142z" />
<glyph unicode="&#xdd;" horiz-adv-x="1318" d="M162 1321l24 119h449l-25 -119h-159l208 -524q3 -6 6.5 -19t6.5 -18l6 -19h4q4 10 12 19l27 37l418 524h-162l22 119h461l-24 -119h-142l-559 -703l-98 -499h188l-24 -119h-520l24 119h189l98 499l-289 703h-141zM735 1540l250 244h186l-280 -244h-156z" />
<glyph unicode="&#xde;" horiz-adv-x="1320" d="M-4 0l24 119h187l233 1202h-188l24 119h521l-25 -119h-188l-35 -166h354q174 0 276.5 -90.5t102.5 -249.5q0 -142 -73 -253t-190 -168.5t-253 -57.5h-375l-43 -217h191l-25 -119h-518zM414 455h342q160 0 269.5 98.5t109.5 263.5q0 107 -70 163t-197 56h-342z" />
<glyph unicode="&#xdf;" horiz-adv-x="1193" d="M72 0l213 1104q21 112 94 196t167.5 124t194.5 40q154 0 242 -76t88 -192q0 -50 -17 -94.5t-44.5 -78t-60.5 -63.5t-66.5 -56t-61 -51t-44.5 -53.5t-17 -58.5q0 -36 32 -73t78 -73t92.5 -75.5t78.5 -94.5t32 -116q0 -133 -112 -228t-259 -95q-119 0 -229 32 q-47 15 -84 33l25 129q52 -27 75 -35q93 -34 205 -34q55 0 106.5 19.5t89.5 66t38 110.5q0 40 -23.5 78.5t-58.5 68t-76 63t-76 63.5t-58.5 70.5t-23.5 82.5q0 57 32.5 108.5t78.5 90.5t92 76.5t78.5 83t32.5 94.5q0 63 -48.5 108t-140.5 45q-109 0 -201 -70t-116 -192 l-209 -1077h-139z" />
<glyph unicode="&#xe0;" horiz-adv-x="1120" d="M10 233q0 69 24 126t64.5 97.5t97.5 71.5t118.5 50t132.5 31.5t134 17t128 4.5h67l8 45q9 38 9 72q0 184 -211 184q-117 0 -220 -47q-45 -19 -90 -49l-43 112q51 33 107 53q136 54 268 54q154 0 242 -71.5t88 -215.5q0 -64 -51.5 -293t-51.5 -268q0 -58 26.5 -77 t70.5 -19q33 0 39 2t14 2l-23 -115q-16 0 -24 -2q-14 -2 -53 -2q-95 0 -144.5 50t-42.5 151h-4q-5 -9 -15.5 -24t-47 -53.5t-77 -67.5t-105.5 -53t-134 -24q-129 0 -215 69.5t-86 188.5zM152 254q0 -72 48 -118t146 -46q90 0 176.5 61.5t143.5 149.5t79 180l11 45h-60 q-45 0 -85 -1.5t-97.5 -8t-104.5 -17.5t-96.5 -31.5t-83.5 -48.5t-55.5 -70.5t-21.5 -94.5zM416 1440h172l153 -244h-141z" />
<glyph unicode="&#xe1;" horiz-adv-x="1120" d="M10 233q0 69 24 126t64.5 97.5t97.5 71.5t118.5 50t132.5 31.5t134 17t128 4.5h67l8 45q9 38 9 72q0 184 -211 184q-117 0 -220 -47q-45 -19 -90 -49l-43 112q51 33 107 53q136 54 268 54q154 0 242 -71.5t88 -215.5q0 -64 -51.5 -293t-51.5 -268q0 -58 26.5 -77 t70.5 -19q33 0 39 2t14 2l-23 -115q-16 0 -24 -2q-14 -2 -53 -2q-95 0 -144.5 50t-42.5 151h-4q-5 -9 -15.5 -24t-47 -53.5t-77 -67.5t-105.5 -53t-134 -24q-129 0 -215 69.5t-86 188.5zM152 254q0 -72 48 -118t146 -46q90 0 176.5 61.5t143.5 149.5t79 180l11 45h-60 q-45 0 -85 -1.5t-97.5 -8t-104.5 -17.5t-96.5 -31.5t-83.5 -48.5t-55.5 -70.5t-21.5 -94.5zM543 1196l250 244h186l-281 -244h-155z" />
<glyph unicode="&#xe2;" horiz-adv-x="1120" d="M10 233q0 69 24 126t64.5 97.5t97.5 71.5t118.5 50t132.5 31.5t134 17t128 4.5h67l8 45q9 38 9 72q0 184 -211 184q-117 0 -220 -47q-45 -19 -90 -49l-43 112q51 33 107 53q136 54 268 54q154 0 242 -71.5t88 -215.5q0 -64 -51.5 -293t-51.5 -268q0 -58 26.5 -77 t70.5 -19q33 0 39 2t14 2l-23 -115q-16 0 -24 -2q-14 -2 -53 -2q-95 0 -144.5 50t-42.5 151h-4q-5 -9 -15.5 -24t-47 -53.5t-77 -67.5t-105.5 -53t-134 -24q-129 0 -215 69.5t-86 188.5zM152 254q0 -72 48 -118t146 -46q90 0 176.5 61.5t143.5 149.5t79 180l11 45h-60 q-45 0 -85 -1.5t-97.5 -8t-104.5 -17.5t-96.5 -31.5t-83.5 -48.5t-55.5 -70.5t-21.5 -94.5zM385 1196l221 244h166l123 -244h-135l-78 166h-4l-143 -166h-150z" />
<glyph unicode="&#xe3;" horiz-adv-x="1120" d="M10 233q0 69 24 126t64.5 97.5t97.5 71.5t118.5 50t132.5 31.5t134 17t128 4.5h67l8 45q9 38 9 72q0 184 -211 184q-117 0 -220 -47q-45 -19 -90 -49l-43 112q51 33 107 53q136 54 268 54q154 0 242 -71.5t88 -215.5q0 -64 -51.5 -293t-51.5 -268q0 -58 26.5 -77 t70.5 -19q33 0 39 2t14 2l-23 -115q-16 0 -24 -2q-14 -2 -53 -2q-95 0 -144.5 50t-42.5 151h-4q-5 -9 -15.5 -24t-47 -53.5t-77 -67.5t-105.5 -53t-134 -24q-129 0 -215 69.5t-86 188.5zM152 254q0 -72 48 -118t146 -46q90 0 176.5 61.5t143.5 149.5t79 180l11 45h-60 q-45 0 -85 -1.5t-97.5 -8t-104.5 -17.5t-96.5 -31.5t-83.5 -48.5t-55.5 -70.5t-21.5 -94.5zM338 1202q48 240 217 240q39 0 69 -15t48 -36t33.5 -42t34 -36t40.5 -15q75 0 103 138h118q-23 -117 -79 -178.5t-138 -61.5q-38 0 -67.5 14.5t-48 35t-34 41.5t-34.5 35.5 t-41 14.5q-77 0 -102 -135h-119z" />
<glyph unicode="&#xe4;" horiz-adv-x="1120" d="M10 233q0 69 24 126t64.5 97.5t97.5 71.5t118.5 50t132.5 31.5t134 17t128 4.5h67l8 45q9 38 9 72q0 184 -211 184q-117 0 -220 -47q-45 -19 -90 -49l-43 112q51 33 107 53q136 54 268 54q154 0 242 -71.5t88 -215.5q0 -64 -51.5 -293t-51.5 -268q0 -58 26.5 -77 t70.5 -19q33 0 39 2t14 2l-23 -115q-16 0 -24 -2q-14 -2 -53 -2q-95 0 -144.5 50t-42.5 151h-4q-5 -9 -15.5 -24t-47 -53.5t-77 -67.5t-105.5 -53t-134 -24q-129 0 -215 69.5t-86 188.5zM152 254q0 -72 48 -118t146 -46q90 0 176.5 61.5t143.5 149.5t79 180l11 45h-60 q-45 0 -85 -1.5t-97.5 -8t-104.5 -17.5t-96.5 -31.5t-83.5 -48.5t-55.5 -70.5t-21.5 -94.5zM403 1264l35 176h142l-35 -176h-142zM778 1264l35 176h143l-36 -176h-142z" />
<glyph unicode="&#xe5;" horiz-adv-x="1120" d="M10 233q0 69 24 126t64.5 97.5t97.5 71.5t118.5 50t132.5 31.5t134 17t128 4.5h67l8 45q9 38 9 72q0 184 -211 184q-117 0 -220 -47q-45 -19 -90 -49l-43 112q51 33 107 53q136 54 268 54q154 0 242 -71.5t88 -215.5q0 -64 -51.5 -293t-51.5 -268q0 -58 26.5 -77 t70.5 -19q33 0 39 2t14 2l-23 -115q-16 0 -24 -2q-14 -2 -53 -2q-95 0 -144.5 50t-42.5 151h-4q-5 -9 -15.5 -24t-47 -53.5t-77 -67.5t-105.5 -53t-134 -24q-129 0 -215 69.5t-86 188.5zM152 254q0 -72 48 -118t146 -46q90 0 176.5 61.5t143.5 149.5t79 180l11 45h-60 q-45 0 -85 -1.5t-97.5 -8t-104.5 -17.5t-96.5 -31.5t-83.5 -48.5t-55.5 -70.5t-21.5 -94.5zM502 1298q0 74 59 125.5t131 51.5q67 0 109.5 -37t42.5 -99q0 -73 -59.5 -124.5t-133.5 -51.5q-64 0 -106.5 37.5t-42.5 97.5zM598 1300q0 -57 59 -57q41 0 66 27t25 69 q0 58 -62 58q-36 0 -62 -27.5t-26 -69.5z" />
<glyph unicode="&#xe6;" horiz-adv-x="1775" d="M14 240q0 69 22.5 125.5t60 95.5t91 69t109.5 47t122 28t122 14.5t116 3.5h113q14 68 14 122q0 94 -52 140.5t-165 46.5q-110 0 -213 -47q-45 -19 -90 -49l-43 112q53 35 105 53q132 54 256 54q275 0 315 -199h4q81 98 187 148.5t225 50.5q185 0 281 -101t96 -274 q0 -40 -13 -107q-7 -33 -14 -53h-776l-4 -28q-6 -54 -6 -68q0 -151 81.5 -238.5t233.5 -87.5q108 0 238 64q51 26 98 61l43 -112q-51 -39 -111 -68q-140 -68 -272 -68q-164 0 -275 75.5t-147 205.5h-4q-9 -21 -27.5 -49.5t-57.5 -71t-86 -76.5t-118 -59t-149 -25 q-133 0 -221.5 71t-88.5 194zM158 252q0 -70 50.5 -115t145.5 -45q71 0 137.5 35.5t115.5 92t84 123.5t50 134l11 41h-121q-49 0 -94.5 -3.5t-103 -12.5t-103.5 -28t-86.5 -47t-63 -73t-22.5 -102zM915 623h627l4 24q2 14 2 49q0 120 -66 181t-169 61q-132 0 -238.5 -81.5 t-159.5 -233.5z" />
<glyph unicode="&#xe7;" horiz-adv-x="1134" d="M72 424q0 171 90.5 317t240.5 230t320 84q57 0 117 -12.5t116.5 -38t87.5 -72t19 -105.5l-21 -108h-129l15 76q7 46 -29.5 78t-88 44.5t-105.5 12.5q-89 0 -177.5 -39t-157.5 -104t-112 -159t-43 -196q0 -154 93 -243t247 -89q146 0 262 72q64 40 101 72l45 -115 q-49 -43 -111 -76q-144 -78 -307 -78h-8l-39 -94q57 -8 93 -43t36 -92q0 -58 -38.5 -99.5t-90 -59t-107.5 -17.5q-51 0 -78 6l-28 6l20 90l23 -6q28 -4 59 -4q30 0 55.5 5.5t47.5 25t22 51.5q0 29 -30 46t-81 17h-28l76 177q-175 27 -276 142t-101 298z" />
<glyph unicode="&#xe8;" horiz-adv-x="1132" d="M72 410q0 100 28.5 196t83 176.5t127 142t166.5 96t197 34.5q183 0 276.5 -102t93.5 -271q0 -57 -14 -115q-3 -9 -14 -53h-791l-4 -29q-6 -48 -6 -65q0 -141 86.5 -230.5t243.5 -89.5q109 0 239 64q55 28 99 61l43 -114q-57 -41 -113 -68q-140 -68 -274 -68 q-213 0 -340 119.5t-127 315.5zM250 616h645l4 25q4 28 4 53q0 119 -64 181.5t-171 62.5q-134 0 -247.5 -84.5t-170.5 -237.5zM492 1440h172l153 -244h-141z" />
<glyph unicode="&#xe9;" horiz-adv-x="1132" d="M72 410q0 100 28.5 196t83 176.5t127 142t166.5 96t197 34.5q183 0 276.5 -102t93.5 -271q0 -57 -14 -115q-3 -9 -14 -53h-791l-4 -29q-6 -48 -6 -65q0 -141 86.5 -230.5t243.5 -89.5q109 0 239 64q55 28 99 61l43 -114q-57 -41 -113 -68q-140 -68 -274 -68 q-213 0 -340 119.5t-127 315.5zM250 616h645l4 25q4 28 4 53q0 119 -64 181.5t-171 62.5q-134 0 -247.5 -84.5t-170.5 -237.5zM618 1196l250 244h187l-281 -244h-156z" />
<glyph unicode="&#xea;" horiz-adv-x="1132" d="M72 410q0 100 28.5 196t83 176.5t127 142t166.5 96t197 34.5q183 0 276.5 -102t93.5 -271q0 -57 -14 -115q-3 -9 -14 -53h-791l-4 -29q-6 -48 -6 -65q0 -141 86.5 -230.5t243.5 -89.5q109 0 239 64q55 28 99 61l43 -114q-57 -41 -113 -68q-140 -68 -274 -68 q-213 0 -340 119.5t-127 315.5zM250 616h645l4 25q4 28 4 53q0 119 -64 181.5t-171 62.5q-134 0 -247.5 -84.5t-170.5 -237.5zM459 1196l221 244h166l123 -244h-135l-78 166h-4l-144 -166h-149z" />
<glyph unicode="&#xeb;" horiz-adv-x="1132" d="M72 410q0 100 28.5 196t83 176.5t127 142t166.5 96t197 34.5q183 0 276.5 -102t93.5 -271q0 -57 -14 -115q-3 -9 -14 -53h-791l-4 -29q-6 -48 -6 -65q0 -141 86.5 -230.5t243.5 -89.5q109 0 239 64q55 28 99 61l43 -114q-57 -41 -113 -68q-140 -68 -274 -68 q-213 0 -340 119.5t-127 315.5zM250 616h645l4 25q4 28 4 53q0 119 -64 181.5t-171 62.5q-134 0 -247.5 -84.5t-170.5 -237.5zM479 1264l35 176h141l-34 -176h-142zM854 1264l35 176h143l-37 -176h-141z" />
<glyph unicode="&#xec;" horiz-adv-x="606" d="M106 915l23 115h324l-152 -764q-6 -35 -6 -59q0 -57 26.5 -76.5t71.5 -19.5q33 0 39 2t12 2l-22 -115q-17 0 -25 -2q-14 -2 -47 -2q-198 0 -198 180q0 35 8 76l131 663h-185zM184 1440h172l154 -244h-141z" />
<glyph unicode="&#xed;" horiz-adv-x="606" d="M106 915l23 115h324l-152 -764q-6 -35 -6 -59q0 -57 26.5 -76.5t71.5 -19.5q33 0 39 2t12 2l-22 -115q-17 0 -25 -2q-14 -2 -47 -2q-198 0 -198 180q0 35 8 76l131 663h-185zM309 1196l250 244h186l-280 -244h-156z" />
<glyph unicode="&#xee;" horiz-adv-x="606" d="M106 915l23 115h324l-152 -764q-6 -35 -6 -59q0 -57 26.5 -76.5t71.5 -19.5q33 0 39 2t12 2l-22 -115q-17 0 -25 -2q-14 -2 -47 -2q-198 0 -198 180q0 35 8 76l131 663h-185zM152 1196l221 244h166l123 -244h-136l-77 166h-5l-143 -166h-149z" />
<glyph unicode="&#xef;" horiz-adv-x="606" d="M106 915l23 115h324l-152 -764q-6 -35 -6 -59q0 -57 26.5 -76.5t71.5 -19.5q33 0 39 2t12 2l-22 -115q-17 0 -25 -2q-14 -2 -47 -2q-198 0 -198 180q0 35 8 76l131 663h-185zM195 1264l36 176h142l-35 -176h-143zM518 1264l37 176h141l-34 -176h-144z" />
<glyph unicode="&#xf0;" horiz-adv-x="1214" d="M70 383q0 103 39.5 204.5t111.5 184t184 133.5t244 51t221 -59q46 -30 68 -59h4q-32 205 -194 338l-390 -162l-10 92l311 131q-133 74 -276 113l59 108q224 -66 363 -162l299 123l12 -92l-233 -96q211 -198 211 -508q0 -63 -11 -132t-34.5 -142t-58 -141t-85 -129 t-111.5 -106t-141 -71.5t-170 -26.5q-134 0 -229.5 57t-139.5 147.5t-44 203.5zM213 387q0 -123 70 -205t200 -82q78 0 150.5 32t125.5 84.5t93 117.5t60 133t20 129q0 110 -74.5 176t-206.5 66q-183 0 -310.5 -132.5t-127.5 -318.5z" />
<glyph unicode="&#xf1;" horiz-adv-x="1339" d="M117 915l22 115h197q58 0 81 -20.5t23 -63.5q0 -19 -11.5 -75.5t-22.5 -88.5h4q19 38 56 80.5t93 88t138 75t171 29.5q136 0 208.5 -68t72.5 -196q0 -69 -48 -309.5t-48 -274.5q0 -59 26 -77.5t72 -18.5q31 0 39 2q6 2 12 2l-22 -115q-17 0 -25 -2q-14 -2 -51 -2 q-33 0 -63 6.5t-62.5 23.5t-52 54.5t-19.5 91.5q0 43 48.5 281.5t48.5 298.5q0 172 -179 172q-162 0 -300 -134.5t-171 -316.5l-92 -473h-139l170 870q5 20 -4 32.5t-33 12.5h-139zM510 1202q48 240 217 240q39 0 69 -15t48 -36t33.5 -42t34 -36t40.5 -15q75 0 103 138h119 q-23 -117 -79.5 -178.5t-138.5 -61.5q-38 0 -67.5 14.5t-48 35t-34 41.5t-34.5 35.5t-41 14.5q-77 0 -102 -135h-119z" />
<glyph unicode="&#xf2;" horiz-adv-x="1277" d="M70 426q0 129 54 246.5t143 200.5t206.5 132.5t241.5 49.5q202 0 330.5 -125t128.5 -320q0 -129 -55 -248t-144 -203t-207 -134t-240 -50q-202 0 -330 126.5t-128 324.5zM213 430q0 -144 91 -237t237 -93q121 0 233 65.5t184 183t72 255.5q0 142 -92.5 234t-237.5 92 q-123 0 -235 -66t-182 -182.5t-70 -251.5zM524 1440h172l154 -244h-141z" />
<glyph unicode="&#xf3;" horiz-adv-x="1277" d="M70 426q0 129 54 246.5t143 200.5t206.5 132.5t241.5 49.5q202 0 330.5 -125t128.5 -320q0 -129 -55 -248t-144 -203t-207 -134t-240 -50q-202 0 -330 126.5t-128 324.5zM213 430q0 -144 91 -237t237 -93q121 0 233 65.5t184 183t72 255.5q0 142 -92.5 234t-237.5 92 q-123 0 -235 -66t-182 -182.5t-70 -251.5zM651 1196l250 244h186l-280 -244h-156z" />
<glyph unicode="&#xf4;" horiz-adv-x="1277" d="M70 426q0 129 54 246.5t143 200.5t206.5 132.5t241.5 49.5q202 0 330.5 -125t128.5 -320q0 -129 -55 -248t-144 -203t-207 -134t-240 -50q-202 0 -330 126.5t-128 324.5zM213 430q0 -144 91 -237t237 -93q121 0 233 65.5t184 183t72 255.5q0 142 -92.5 234t-237.5 92 q-123 0 -235 -66t-182 -182.5t-70 -251.5zM492 1196l221 244h166l122 -244h-135l-78 166h-4l-143 -166h-149z" />
<glyph unicode="&#xf5;" horiz-adv-x="1277" d="M70 426q0 129 54 246.5t143 200.5t206.5 132.5t241.5 49.5q202 0 330.5 -125t128.5 -320q0 -129 -55 -248t-144 -203t-207 -134t-240 -50q-202 0 -330 126.5t-128 324.5zM213 430q0 -144 91 -237t237 -93q121 0 233 65.5t184 183t72 255.5q0 142 -92.5 234t-237.5 92 q-123 0 -235 -66t-182 -182.5t-70 -251.5zM446 1202q48 240 218 240q39 0 69 -15t48 -36t33.5 -42t34 -36t40.5 -15q74 0 102 138h119q-23 -117 -79 -178.5t-138 -61.5q-38 0 -67.5 14.5t-48 35t-34 41.5t-34.5 35.5t-41 14.5q-78 0 -103 -135h-119z" />
<glyph unicode="&#xf6;" horiz-adv-x="1277" d="M70 426q0 129 54 246.5t143 200.5t206.5 132.5t241.5 49.5q202 0 330.5 -125t128.5 -320q0 -129 -55 -248t-144 -203t-207 -134t-240 -50q-202 0 -330 126.5t-128 324.5zM213 430q0 -144 91 -237t237 -93q121 0 233 65.5t184 183t72 255.5q0 142 -92.5 234t-237.5 92 q-123 0 -235 -66t-182 -182.5t-70 -251.5zM510 1264l35 176h141l-35 -176h-141zM885 1264l35 176h143l-37 -176h-141z" />
<glyph unicode="&#xf7;" d="M115 522v119h1003v-119h-1003zM541 125v151h151v-151h-151zM541 887v151h151v-151h-151z" />
<glyph unicode="&#xf8;" horiz-adv-x="1282" d="M74 426q0 128 54 246t141.5 201t203 132.5t234.5 49.5q164 0 286 -82l107 114l67 -61l-106 -117q117 -131 117 -299q0 -129 -54.5 -248t-143 -203t-203 -134t-232.5 -50q-158 0 -275 74l-106 -115l-66 62l101 110q-125 125 -125 320zM217 430q0 -128 78 -219l606 659 q-94 60 -196 60q-123 0 -235.5 -66t-182.5 -182.5t-70 -251.5zM362 150q79 -50 183 -50q121 0 233 65.5t184 183t72 255.5q0 106 -71 201z" />
<glyph unicode="&#xf9;" horiz-adv-x="1329" d="M92 915l21 115h323l-119 -614q-18 -99 -18 -144q0 -81 40.5 -124.5t139.5 -43.5q83 0 162.5 40t139.5 104.5t102.5 145t58.5 163.5l68 358h-183l23 115h324l-150 -764q-6 -35 -6 -59q0 -57 26.5 -76.5t71.5 -19.5q31 0 39 2q6 2 12 2l-22 -115q-17 0 -27 -2 q-16 -2 -51 -2q-109 0 -154 65.5t-24 174.5h-4q-26 -43 -63.5 -84t-92.5 -83t-131 -68t-160 -26q-125 0 -203.5 65t-78.5 200q0 55 16 137l102 538h-182zM504 1440h172l153 -244h-141z" />
<glyph unicode="&#xfa;" horiz-adv-x="1329" d="M92 915l21 115h323l-119 -614q-18 -99 -18 -144q0 -81 40.5 -124.5t139.5 -43.5q83 0 162.5 40t139.5 104.5t102.5 145t58.5 163.5l68 358h-183l23 115h324l-150 -764q-6 -35 -6 -59q0 -57 26.5 -76.5t71.5 -19.5q31 0 39 2q6 2 12 2l-22 -115q-17 0 -27 -2 q-16 -2 -51 -2q-109 0 -154 65.5t-24 174.5h-4q-26 -43 -63.5 -84t-92.5 -83t-131 -68t-160 -26q-125 0 -203.5 65t-78.5 200q0 55 16 137l102 538h-182zM631 1196l250 244h186l-281 -244h-155z" />
<glyph unicode="&#xfb;" horiz-adv-x="1329" d="M92 915l21 115h323l-119 -614q-18 -99 -18 -144q0 -81 40.5 -124.5t139.5 -43.5q83 0 162.5 40t139.5 104.5t102.5 145t58.5 163.5l68 358h-183l23 115h324l-150 -764q-6 -35 -6 -59q0 -57 26.5 -76.5t71.5 -19.5q31 0 39 2q6 2 12 2l-22 -115q-17 0 -27 -2 q-16 -2 -51 -2q-109 0 -154 65.5t-24 174.5h-4q-26 -43 -63.5 -84t-92.5 -83t-131 -68t-160 -26q-125 0 -203.5 65t-78.5 200q0 55 16 137l102 538h-182zM471 1196l221 244h166l123 -244h-135l-78 166h-4l-143 -166h-150z" />
<glyph unicode="&#xfc;" horiz-adv-x="1329" d="M92 915l21 115h323l-119 -614q-18 -99 -18 -144q0 -81 40.5 -124.5t139.5 -43.5q83 0 162.5 40t139.5 104.5t102.5 145t58.5 163.5l68 358h-183l23 115h324l-150 -764q-6 -35 -6 -59q0 -57 26.5 -76.5t71.5 -19.5q31 0 39 2q6 2 12 2l-22 -115q-17 0 -27 -2 q-16 -2 -51 -2q-109 0 -154 65.5t-24 174.5h-4q-26 -43 -63.5 -84t-92.5 -83t-131 -68t-160 -26q-125 0 -203.5 65t-78.5 200q0 55 16 137l102 538h-182zM489 1264l35 176h142l-35 -176h-142zM864 1264l35 176h143l-36 -176h-142z" />
<glyph unicode="&#xfd;" horiz-adv-x="1181" d="M-106 -369l69 105q14 -14 35 -23q46 -20 92 -20q129 0 229 164l84 137l-188 921h-135l22 115h426l-22 -115h-150l133 -702q5 -15 5 -51v-23h4l10 23q5 10 27 51l405 702h-149l22 115h432l-22 -115h-136l-653 -1105q-144 -240 -348 -240q-79 0 -143 31q-31 18 -49 30z M608 1196l250 244h186l-280 -244h-156z" />
<glyph unicode="&#xfe;" horiz-adv-x="1230" d="M-8 -410l336 1735h-176l22 115h315l-98 -504q-2 -28 -14 -59q-1 -6 -4 -15l-4 -12h4q55 86 152 145.5t218 59.5q183 0 282 -110t99 -304q0 -143 -47 -269t-124.5 -212t-178.5 -135.5t-207 -49.5q-115 0 -202 53t-121 154h-4q0 -18 -2 -28q-5 -41 -11 -70l-98 -494h-137z M297 397q0 -129 66 -213t192 -84q77 0 152 37t136 102.5t98.5 168t37.5 223.5q0 140 -67.5 218.5t-190.5 78.5q-91 0 -172 -47t-135 -123t-85.5 -171t-31.5 -190z" />
<glyph unicode="&#xff;" horiz-adv-x="1181" d="M-106 -369l69 105q14 -14 35 -23q46 -20 92 -20q129 0 229 164l84 137l-188 921h-135l22 115h426l-22 -115h-150l133 -702q5 -15 5 -51v-23h4l10 23q5 10 27 51l405 702h-149l22 115h432l-22 -115h-136l-653 -1105q-144 -240 -348 -240q-79 0 -143 31q-31 18 -49 30z M469 1264l35 176h141l-35 -176h-141zM844 1264l35 176h143l-37 -176h-141z" />
<glyph unicode="&#x152;" horiz-adv-x="1976" d="M127 588q0 116 32 228t89 207.5t137.5 177t175 138.5t204.5 89t222 32q51 0 145 -10t128 -10h727l-60 -299h-127l35 176h-557l-102 -531h540l-24 -122h-541l-104 -541h593l35 178h127l-59 -301h-742q-29 0 -115.5 -10t-131.5 -10q-142 0 -260 45.5t-198.5 126.5 t-124.5 193t-44 243zM274 582q0 -213 130 -344.5t352 -131.5q64 0 104 9l43 8l232 1194l-41 8q-36 8 -101 8q-144 0 -277 -60t-229.5 -160.5t-154.5 -239.5t-58 -291z" />
<glyph unicode="&#x153;" horiz-adv-x="2076" d="M72 426q0 129 53.5 246.5t141.5 200.5t204.5 132.5t237.5 49.5q154 0 262 -75t157 -204h5q81 128 206 203.5t275 75.5q185 0 280 -102t95 -271q0 -53 -15 -115q-5 -16 -14 -55h-791l-4 -29q-6 -48 -6 -65q0 -138 86.5 -228t243.5 -90q107 0 237 64q55 28 99 61l45 -114 q-51 -39 -111 -68q-140 -68 -274 -68q-162 0 -275.5 74t-156.5 209h-4q-87 -128 -226 -205.5t-286 -77.5q-208 0 -336.5 126t-128.5 325zM215 430q0 -144 91 -237t237 -93q121 0 233 65.5t184 183t72 255.5q0 142 -92.5 234t-237.5 92q-125 0 -237 -66t-181 -182t-69 -252z M1196 616h643l4 25q4 28 4 53q0 119 -64 181.5t-171 62.5q-133 0 -246 -84.5t-170 -237.5z" />
<glyph unicode="&#x178;" horiz-adv-x="1318" d="M162 1321l24 119h449l-25 -119h-159l208 -524q3 -6 6.5 -19t6.5 -18l6 -19h4q4 10 12 19l27 37l418 524h-162l22 119h461l-24 -119h-142l-559 -703l-98 -499h188l-24 -119h-520l24 119h189l98 499l-289 703h-141zM596 1608l35 176h141l-35 -176h-141zM971 1608l35 176 h143l-37 -176h-141z" />
<glyph unicode="&#x2c6;" horiz-adv-x="1032" d="M117 1540l221 244h166l123 -244h-135l-78 166h-4l-144 -166h-149z" />
<glyph unicode="&#x2dc;" horiz-adv-x="1032" d="M70 1546q48 240 217 240q39 0 69 -15t48 -36t33.5 -42t34 -36t40.5 -15q74 0 102 138h119q-23 -117 -79 -178.5t-138 -61.5q-38 0 -67.5 14.5t-48 35t-34 41.5t-34.5 35.5t-41 14.5q-78 0 -103 -135h-118z" />
<glyph unicode="&#x2000;" horiz-adv-x="909" />
<glyph unicode="&#x2001;" horiz-adv-x="1819" />
<glyph unicode="&#x2002;" horiz-adv-x="909" />
<glyph unicode="&#x2003;" horiz-adv-x="1819" />
<glyph unicode="&#x2004;" horiz-adv-x="606" />
<glyph unicode="&#x2005;" horiz-adv-x="454" />
<glyph unicode="&#x2006;" horiz-adv-x="303" />
<glyph unicode="&#x2007;" horiz-adv-x="303" />
<glyph unicode="&#x2008;" horiz-adv-x="227" />
<glyph unicode="&#x2009;" horiz-adv-x="363" />
<glyph unicode="&#x200a;" horiz-adv-x="101" />
<glyph unicode="&#x2010;" horiz-adv-x="1009" d="M197 518l22 127h582l-23 -127h-581z" />
<glyph unicode="&#x2011;" horiz-adv-x="1009" d="M197 518l22 127h582l-23 -127h-581z" />
<glyph unicode="&#x2012;" horiz-adv-x="1009" d="M197 518l22 127h582l-23 -127h-581z" />
<glyph unicode="&#x2013;" horiz-adv-x="1462" d="M203 522l22 119h1022l-20 -119h-1024z" />
<glyph unicode="&#x2014;" horiz-adv-x="1871" d="M203 522l22 119h1432l-21 -119h-1433z" />
<glyph unicode="&#x2018;" horiz-adv-x="460" d="M199 1042l211 416h116l-170 -416h-157z" />
<glyph unicode="&#x2019;" horiz-adv-x="452" d="M205 1042l170 416h157l-210 -416h-117z" />
<glyph unicode="&#x201a;" horiz-adv-x="499" d="M-66 -250l172 418h156l-209 -418h-119z" />
<glyph unicode="&#x201c;" horiz-adv-x="722" d="M199 1042l211 416h116l-170 -416h-157zM461 1042l211 416h116l-172 -416h-155z" />
<glyph unicode="&#x201d;" horiz-adv-x="712" d="M205 1042l170 416h157l-210 -416h-117zM465 1042l172 416h156l-211 -416h-117z" />
<glyph unicode="&#x201e;" horiz-adv-x="761" d="M-66 -250l172 418h156l-209 -418h-119zM197 -250l170 418h157l-211 -418h-116z" />
<glyph unicode="&#x2022;" horiz-adv-x="831" d="M121 596q0 123 85 208t208 85q122 0 206.5 -85t84.5 -208t-84.5 -208t-206.5 -85q-123 0 -208 85t-85 208z" />
<glyph unicode="&#x2026;" horiz-adv-x="1464" d="M57 0l33 170h164l-33 -170h-164zM539 0l32 170h166l-35 -170h-163zM1020 0l33 170h166l-35 -170h-164z" />
<glyph unicode="&#x202f;" horiz-adv-x="363" />
<glyph unicode="&#x2039;" horiz-adv-x="698" d="M94 582l393 417h160l-409 -428l260 -413h-142z" />
<glyph unicode="&#x203a;" horiz-adv-x="702" d="M45 158l410 428l-260 413h141l262 -424l-393 -417h-160z" />
<glyph unicode="&#x205f;" horiz-adv-x="454" />
<glyph unicode="&#x20ac;" horiz-adv-x="1228" d="M88 526l21 103h112q2 85 31 207h-109l19 102h125q104 234 314.5 380t457.5 146q85 0 153 -14l60 -14l-58 -123q-16 2 -47 10q-52 10 -112 10q-191 0 -357.5 -108.5t-253.5 -286.5h627l-41 -102h-629q-24 -92 -34 -207h587l-39 -103h-544q6 -89 36.5 -163.5t84.5 -132.5 t138.5 -91t190.5 -33q67 0 133 15l56 14l6 -131l-58 -14q-73 -15 -145 -15q-257 0 -419.5 152t-174.5 399h-131z" />
<glyph unicode="&#x2122;" horiz-adv-x="2097" d="M217 1333v107h756v-107h-320v-790h-116v790h-320zM1049 543l71 897h105l237 -514q5 -11 12.5 -33t8.5 -25l8 -26h4q1 3 4 11.5t4 14.5q6 29 21 58l235 514h105l71 -897h-114l-49 608v41q0 12 2 18h-5l-229 -499h-96l-230 499h-4q2 -6 2 -18v-41l-49 -608h-114z" />
<glyph unicode="&#xe000;" horiz-adv-x="1034" d="M0 0v1034h1034v-1034h-1034z" />
</font>
</defs>
</svg>
